<?xml version="1.0" encoding="UTF-8" standalone="no"?>
<svg
   xmlns:i="http://ns.adobe.com/AdobeIllustrator/10.0/"
   xmlns:dc="http://purl.org/dc/elements/1.1/"
   xmlns:cc="http://creativecommons.org/ns#"
   xmlns:rdf="http://www.w3.org/1999/02/22-rdf-syntax-ns#"
   xmlns:svg="http://www.w3.org/2000/svg"
   xmlns="http://www.w3.org/2000/svg"
   xmlns:xlink="http://www.w3.org/1999/xlink"
   xmlns:sodipodi="http://sodipodi.sourceforge.net/DTD/sodipodi-0.dtd"
   xmlns:inkscape="http://www.inkscape.org/namespaces/inkscape"
   version="1.0"
   viewBox="0 0 16000 12000"
   preserveAspectRatio="xMidYMid"
   id="svg3702"
   sodipodi:version="0.32"
   inkscape:version="0.46"
   width="496.06299"
   height="159.99998"
   sodipodi:docname="simple_soc_intr.svg"
   inkscape:output_extension="org.inkscape.output.svg.inkscape"
   style="fill-rule:evenodd"
   inkscape:export-filename="/home/jeremy/svntrunk/Documentation/appnotes/sysc_tlm2_simple_or1k/images/simple_soc_intr.png"
   inkscape:export-xdpi="300"
   inkscape:export-ydpi="300">
  <metadata
     id="metadata4086">
    <rdf:RDF>
      <cc:Work
         rdf:about="">
        <dc:format>image/svg+xml</dc:format>
        <dc:type
           rdf:resource="http://purl.org/dc/dcmitype/StillImage" />
        <dc:title>Simple SoC with Interrupt</dc:title>
        <dc:date>26 June 08</dc:date>
        <dc:creator>
          <cc:Agent>
            <dc:title>Embecosm</dc:title>
          </cc:Agent>
        </dc:creator>
        <dc:rights>
          <cc:Agent>
            <dc:title>Embecosm</dc:title>
          </cc:Agent>
        </dc:rights>
        <cc:license
           rdf:resource="http://creativecommons.org/licenses/by/3.0/" />
        <dc:publisher>
          <cc:Agent>
            <dc:title>Embecosm</dc:title>
          </cc:Agent>
        </dc:publisher>
        <dc:language>en-GB</dc:language>
        <dc:subject>
          <rdf:Bag>
            <rdf:li>SoC UART</rdf:li>
          </rdf:Bag>
        </dc:subject>
        <dc:description>Diagram of a simple SoC comprising a CPU core with memory and UART with terminal as testbench with interrupt connecting UART and ISS</dc:description>
        <dc:contributor>
          <cc:Agent>
            <dc:title>Jeremy Bennett</dc:title>
          </cc:Agent>
        </dc:contributor>
      </cc:Work>
      <cc:License
         rdf:about="http://creativecommons.org/licenses/by/3.0/">
        <cc:permits
           rdf:resource="http://creativecommons.org/ns#Reproduction" />
        <cc:permits
           rdf:resource="http://creativecommons.org/ns#Distribution" />
        <cc:requires
           rdf:resource="http://creativecommons.org/ns#Notice" />
        <cc:requires
           rdf:resource="http://creativecommons.org/ns#Attribution" />
        <cc:permits
           rdf:resource="http://creativecommons.org/ns#DerivativeWorks" />
      </cc:License>
    </rdf:RDF>
  </metadata>
  <sodipodi:namedview
     inkscape:window-height="1151"
     inkscape:window-width="1600"
     inkscape:pageshadow="2"
     inkscape:pageopacity="0.0"
     guidetolerance="10.0"
     gridtolerance="10.0"
     objecttolerance="10.0"
     borderopacity="1.0"
     bordercolor="#666666"
     pagecolor="#ffffff"
     id="base"
     showgrid="true"
     units="cm"
     inkscape:snap-guide="true"
     showguides="true"
     inkscape:showpageshadow="false"
     inkscape:zoom="2.3162381"
     inkscape:cx="248.03149"
     inkscape:cy="79.999992"
     inkscape:window-x="0"
     inkscape:window-y="0"
     inkscape:current-layer="svg3702">
    <inkscape:grid
       type="xygrid"
       id="grid4253"
       visible="true"
       enabled="true"
       empspacing="10"
       dotted="true" />
  </sodipodi:namedview>
  <defs
     id="defs3704">
    <marker
       inkscape:stockid="TriangleInS"
       orient="auto"
       refY="0.0"
       refX="0.0"
       id="TriangleInS"
       style="overflow:visible">
      <path
         id="path3516"
         d="M 5.77,0.0 L -2.88,5.0 L -2.88,-5.0 L 5.77,0.0 z "
         style="fill-rule:evenodd;stroke:#000000;stroke-width:1.0pt;marker-start:none"
         transform="scale(-0.2)" />
    </marker>
    <marker
       inkscape:stockid="TriangleOutS"
       orient="auto"
       refY="0.0"
       refX="0.0"
       id="TriangleOutS"
       style="overflow:visible">
      <path
         id="path3525"
         d="M 5.77,0.0 L -2.88,5.0 L -2.88,-5.0 L 5.77,0.0 z "
         style="fill-rule:evenodd;stroke:#000000;stroke-width:1.0pt;marker-start:none"
         transform="scale(0.2)" />
    </marker>
    <marker
       inkscape:stockid="TriangleOutM"
       orient="auto"
       refY="0.0"
       refX="0.0"
       id="TriangleOutM"
       style="overflow:visible">
      <path
         id="path3522"
         d="M 5.77,0.0 L -2.88,5.0 L -2.88,-5.0 L 5.77,0.0 z "
         style="fill-rule:evenodd;stroke:#000000;stroke-width:1.0pt;marker-start:none"
         transform="scale(0.4)" />
    </marker>
    <filter
       id="filter12487"
       height="1.2304392"
       y="-0.11521961"
       width="1.1645514"
       x="-0.082275711"
       inkscape:collect="always">
      <feGaussianBlur
         id="feGaussianBlur12489"
         stdDeviation="7.089248"
         inkscape:collect="always" />
    </filter>
    <filter
       id="filter6493"
       inkscape:collect="always">
      <feGaussianBlur
         id="feGaussianBlur6495"
         stdDeviation="0.86700095"
         inkscape:collect="always" />
    </filter>
    <linearGradient
       id="linearGradient14442">
      <stop
         id="stop14444"
         offset="0"
         style="stop-color:#c3ff00;stop-opacity:1;" />
      <stop
         style="stop-color:#c3ff00;stop-opacity:0.60204083;"
         offset="0.5"
         id="stop14450" />
      <stop
         id="stop14446"
         offset="1"
         style="stop-color:#c3ff00;stop-opacity:0;" />
    </linearGradient>
    <linearGradient
       id="linearGradient15429">
      <stop
         style="stop-color:#ffffff;stop-opacity:1;"
         offset="0"
         id="stop15431" />
      <stop
         id="stop15437"
         offset="0.5"
         style="stop-color:#ffffff;stop-opacity:0;" />
      <stop
         style="stop-color:#000000;stop-opacity:1;"
         offset="1"
         id="stop15435" />
    </linearGradient>
    <linearGradient
       id="linearGradient16426">
      <stop
         style="stop-color:#ffffff;stop-opacity:1;"
         offset="0"
         id="stop16428" />
      <stop
         style="stop-color:#ffffff;stop-opacity:0;"
         offset="1"
         id="stop16430" />
    </linearGradient>
    <linearGradient
       id="linearGradient25216">
      <stop
         style="stop-color:#c3ff00;stop-opacity:1;"
         offset="0"
         id="stop25218" />
      <stop
         id="stop25220"
         offset="0.5"
         style="stop-color:#c3ff00;stop-opacity:0.60204083;" />
      <stop
         style="stop-color:#c3ff00;stop-opacity:0;"
         offset="1"
         id="stop25222" />
    </linearGradient>
    <linearGradient
       id="linearGradient26205"
       inkscape:collect="always">
      <stop
         id="stop26207"
         offset="0"
         style="stop-color:#000000;stop-opacity:1;" />
      <stop
         id="stop26209"
         offset="1"
         style="stop-color:#000000;stop-opacity:0;" />
    </linearGradient>
    <linearGradient
       id="linearGradient30113">
      <stop
         id="stop30115"
         offset="0"
         style="stop-color:#bcbcbc;stop-opacity:1;" />
      <stop
         id="stop30119"
         offset="1"
         style="stop-color:#000000;stop-opacity:1;" />
    </linearGradient>
    <linearGradient
       id="linearGradient32079">
      <stop
         style="stop-color:#000000;stop-opacity:1;"
         offset="0"
         id="stop32081" />
      <stop
         style="stop-color:#414141;stop-opacity:1;"
         offset="1"
         id="stop32083" />
    </linearGradient>
    <radialGradient
       inkscape:collect="always"
       xlink:href="#linearGradient25216"
       id="radialGradient5534"
       gradientUnits="userSpaceOnUse"
       gradientTransform="matrix(1,0,0,1.0000016,0,-3.9552678e-4)"
       cx="98.65522"
       cy="251.11121"
       fx="98.65522"
       fy="251.11121"
       r="2.8569505" />
    <radialGradient
       inkscape:collect="always"
       xlink:href="#linearGradient25216"
       id="radialGradient5536"
       gradientUnits="userSpaceOnUse"
       gradientTransform="matrix(1,0,0,1.0000016,0,-3.9552678e-4)"
       cx="98.65522"
       cy="251.11121"
       fx="98.65522"
       fy="251.11121"
       r="2.8569505" />
    <radialGradient
       inkscape:collect="always"
       xlink:href="#linearGradient30113"
       id="radialGradient5542"
       gradientUnits="userSpaceOnUse"
       cx="85.55294"
       cy="215.24489"
       fx="85.55294"
       fy="215.24489"
       r="2.4840665" />
    <radialGradient
       inkscape:collect="always"
       xlink:href="#linearGradient26205"
       id="radialGradient5544"
       gradientUnits="userSpaceOnUse"
       cx="85.55294"
       cy="215.24489"
       fx="85.55294"
       fy="215.24489"
       r="2.4840665" />
    <radialGradient
       inkscape:collect="always"
       xlink:href="#linearGradient30113"
       id="radialGradient5546"
       gradientUnits="userSpaceOnUse"
       cx="85.55294"
       cy="215.24489"
       fx="85.55294"
       fy="215.24489"
       r="2.4840665" />
    <radialGradient
       inkscape:collect="always"
       xlink:href="#linearGradient26205"
       id="radialGradient5548"
       gradientUnits="userSpaceOnUse"
       cx="85.55294"
       cy="215.24489"
       fx="85.55294"
       fy="215.24489"
       r="2.4840665" />
    <radialGradient
       inkscape:collect="always"
       xlink:href="#linearGradient30113"
       id="radialGradient5550"
       gradientUnits="userSpaceOnUse"
       cx="85.55294"
       cy="215.24489"
       fx="85.55294"
       fy="215.24489"
       r="2.4840665" />
    <radialGradient
       inkscape:collect="always"
       xlink:href="#linearGradient26205"
       id="radialGradient5552"
       gradientUnits="userSpaceOnUse"
       cx="85.55294"
       cy="215.24489"
       fx="85.55294"
       fy="215.24489"
       r="2.4840665" />
    <radialGradient
       inkscape:collect="always"
       xlink:href="#linearGradient30113"
       id="radialGradient5554"
       gradientUnits="userSpaceOnUse"
       cx="85.55294"
       cy="215.24489"
       fx="85.55294"
       fy="215.24489"
       r="2.4840665" />
    <radialGradient
       inkscape:collect="always"
       xlink:href="#linearGradient26205"
       id="radialGradient5556"
       gradientUnits="userSpaceOnUse"
       cx="85.55294"
       cy="215.24489"
       fx="85.55294"
       fy="215.24489"
       r="2.4840665" />
    <linearGradient
       inkscape:collect="always"
       xlink:href="#linearGradient32079"
       id="linearGradient5561"
       gradientUnits="userSpaceOnUse"
       x1="115.02227"
       y1="242.89595"
       x2="115.06101"
       y2="254.68471"
       gradientTransform="matrix(26.415097,0,0,26.415097,-10375.352,2422.4798)" />
    <radialGradient
       inkscape:collect="always"
       xlink:href="#linearGradient16426"
       id="radialGradient5573"
       gradientUnits="userSpaceOnUse"
       gradientTransform="matrix(26.415097,0,0,4.0316147,-10375.352,7197.7759)"
       cx="113.32987"
       cy="250.77898"
       fx="113.32987"
       fy="250.77898"
       r="113.51242" />
    <radialGradient
       inkscape:collect="always"
       xlink:href="#linearGradient14442"
       id="radialGradient5576"
       gradientUnits="userSpaceOnUse"
       gradientTransform="matrix(36.469615,0,0,36.469615,-20973.224,281.07324)"
       cx="372.84576"
       cy="216.67342"
       fx="372.84576"
       fy="216.67342"
       r="3.833235" />
    <radialGradient
       inkscape:collect="always"
       xlink:href="#linearGradient15429"
       id="radialGradient5578"
       gradientUnits="userSpaceOnUse"
       gradientTransform="matrix(36.469615,0,0,36.469615,-20973.224,281.07324)"
       cx="372.84576"
       cy="216.67342"
       fx="372.84576"
       fy="216.67342"
       r="3.833235" />
    <radialGradient
       inkscape:collect="always"
       xlink:href="#linearGradient25216"
       id="radialGradient6910"
       gradientUnits="userSpaceOnUse"
       gradientTransform="matrix(1,0,0,1.0000016,0,-3.9552678e-4)"
       cx="98.65522"
       cy="251.11121"
       fx="98.65522"
       fy="251.11121"
       r="2.8569505" />
    <radialGradient
       inkscape:collect="always"
       xlink:href="#linearGradient25216"
       id="radialGradient6912"
       gradientUnits="userSpaceOnUse"
       gradientTransform="matrix(1,0,0,1.0000016,0,-3.9552678e-4)"
       cx="98.65522"
       cy="251.11121"
       fx="98.65522"
       fy="251.11121"
       r="2.8569505" />
    <radialGradient
       inkscape:collect="always"
       xlink:href="#linearGradient14442"
       id="radialGradient3636"
       gradientUnits="userSpaceOnUse"
       gradientTransform="matrix(36.469615,0,0,36.469615,-20973.224,281.07324)"
       cx="372.84576"
       cy="216.67342"
       fx="372.84576"
       fy="216.67342"
       r="3.833235" />
    <radialGradient
       inkscape:collect="always"
       xlink:href="#linearGradient15429"
       id="radialGradient3638"
       gradientUnits="userSpaceOnUse"
       gradientTransform="matrix(36.469615,0,0,36.469615,-20973.224,281.07324)"
       cx="372.84576"
       cy="216.67342"
       fx="372.84576"
       fy="216.67342"
       r="3.833235" />
    <radialGradient
       inkscape:collect="always"
       xlink:href="#linearGradient16426"
       id="radialGradient3640"
       gradientUnits="userSpaceOnUse"
       gradientTransform="matrix(26.415097,0,0,4.0316147,-10375.352,7197.7759)"
       cx="113.32987"
       cy="250.77898"
       fx="113.32987"
       fy="250.77898"
       r="113.51242" />
    <radialGradient
       inkscape:collect="always"
       xlink:href="#linearGradient25216"
       id="radialGradient3642"
       gradientUnits="userSpaceOnUse"
       gradientTransform="matrix(1,0,0,1.0000016,0,-3.9552678e-4)"
       cx="98.65522"
       cy="251.11121"
       fx="98.65522"
       fy="251.11121"
       r="2.8569505" />
    <radialGradient
       inkscape:collect="always"
       xlink:href="#linearGradient25216"
       id="radialGradient3644"
       gradientUnits="userSpaceOnUse"
       gradientTransform="matrix(1,0,0,1.0000016,0,-3.9552678e-4)"
       cx="98.65522"
       cy="251.11121"
       fx="98.65522"
       fy="251.11121"
       r="2.8569505" />
    <radialGradient
       inkscape:collect="always"
       xlink:href="#linearGradient25216"
       id="radialGradient3646"
       gradientUnits="userSpaceOnUse"
       gradientTransform="matrix(1,0,0,1.0000016,0,-3.9552678e-4)"
       cx="98.65522"
       cy="251.11121"
       fx="98.65522"
       fy="251.11121"
       r="2.8569505" />
    <radialGradient
       inkscape:collect="always"
       xlink:href="#linearGradient25216"
       id="radialGradient3648"
       gradientUnits="userSpaceOnUse"
       gradientTransform="matrix(1,0,0,1.0000016,0,-3.9552678e-4)"
       cx="98.65522"
       cy="251.11121"
       fx="98.65522"
       fy="251.11121"
       r="2.8569505" />
    <radialGradient
       inkscape:collect="always"
       xlink:href="#linearGradient30113"
       id="radialGradient3650"
       gradientUnits="userSpaceOnUse"
       cx="85.55294"
       cy="215.24489"
       fx="85.55294"
       fy="215.24489"
       r="2.4840665" />
    <radialGradient
       inkscape:collect="always"
       xlink:href="#linearGradient26205"
       id="radialGradient3652"
       gradientUnits="userSpaceOnUse"
       cx="85.55294"
       cy="215.24489"
       fx="85.55294"
       fy="215.24489"
       r="2.4840665" />
    <radialGradient
       inkscape:collect="always"
       xlink:href="#linearGradient30113"
       id="radialGradient3654"
       gradientUnits="userSpaceOnUse"
       cx="85.55294"
       cy="215.24489"
       fx="85.55294"
       fy="215.24489"
       r="2.4840665" />
    <radialGradient
       inkscape:collect="always"
       xlink:href="#linearGradient26205"
       id="radialGradient3656"
       gradientUnits="userSpaceOnUse"
       cx="85.55294"
       cy="215.24489"
       fx="85.55294"
       fy="215.24489"
       r="2.4840665" />
    <radialGradient
       inkscape:collect="always"
       xlink:href="#linearGradient30113"
       id="radialGradient3658"
       gradientUnits="userSpaceOnUse"
       cx="85.55294"
       cy="215.24489"
       fx="85.55294"
       fy="215.24489"
       r="2.4840665" />
    <radialGradient
       inkscape:collect="always"
       xlink:href="#linearGradient26205"
       id="radialGradient3660"
       gradientUnits="userSpaceOnUse"
       cx="85.55294"
       cy="215.24489"
       fx="85.55294"
       fy="215.24489"
       r="2.4840665" />
    <radialGradient
       inkscape:collect="always"
       xlink:href="#linearGradient30113"
       id="radialGradient3662"
       gradientUnits="userSpaceOnUse"
       cx="85.55294"
       cy="215.24489"
       fx="85.55294"
       fy="215.24489"
       r="2.4840665" />
    <radialGradient
       inkscape:collect="always"
       xlink:href="#linearGradient26205"
       id="radialGradient3664"
       gradientUnits="userSpaceOnUse"
       cx="85.55294"
       cy="215.24489"
       fx="85.55294"
       fy="215.24489"
       r="2.4840665" />
    <linearGradient
       inkscape:collect="always"
       xlink:href="#linearGradient32079"
       id="linearGradient3666"
       gradientUnits="userSpaceOnUse"
       gradientTransform="matrix(26.415097,0,0,26.415097,-10375.352,2422.4798)"
       x1="115.02227"
       y1="242.89595"
       x2="115.06101"
       y2="254.68471" />
  </defs>
  <g
     id="g3539"
     transform="translate(227.36191,6.35e-5)">
    <g
       transform="matrix(2.6574805,0,0,2.6574805,-10375.113,-19889.765)"
       style="fill-rule:evenodd;visibility:visible"
       id="Default"
       visibility="visible">
      <desc
         id="desc3762">Master slide</desc>
    </g>
    <g
       transform="matrix(2.6574805,0,0,2.6574805,-10375.113,-19889.765)"
       id="g3801"
       style="fill-rule:evenodd;visibility:visible" />
    <g
       transform="matrix(2.6574805,0,0,2.6574805,-10375.113,-19889.765)"
       id="g3935"
       style="fill-rule:evenodd;visibility:visible" />
    <g
       transform="matrix(2.6574805,0,0,2.6574805,-10375.113,-19889.765)"
       id="g4029"
       style="fill-rule:evenodd;visibility:visible" />
    <g
       transform="matrix(2.6574805,0,0,2.6574805,-10375.113,-19889.765)"
       id="g4083"
       style="fill-rule:evenodd;visibility:visible" />
    <g
       transform="matrix(1.1464966,0,0,2.5479211,12084.902,-29886.691)"
       style="fill:#7873cd;fill-rule:evenodd;stroke:#000000;stroke-width:68.01638031;stroke-miterlimit:4;stroke-dasharray:none;stroke-opacity:1;visibility:visible"
       id="g5805" />
    <path
       d="M 8953.8892,56.249873 L 26091.39,56.249873 L 26091.39,11943.75 L 8953.8892,11943.75 L 8953.8892,56.249873 z"
       id="path3779"
       style="fill:#d2d1e7;fill-rule:evenodd;stroke:#000000;stroke-width:112.50002289;stroke-miterlimit:4;stroke-dasharray:none;stroke-opacity:1;visibility:visible" />
    <g
       transform="matrix(2.5687502,0,0,1.4625001,-17267.989,-7125.0014)"
       id="g3809"
       style="fill:#7873cd;fill-rule:evenodd;stroke:#000000;stroke-width:58.04216766;stroke-miterlimit:4;stroke-dasharray:none;stroke-opacity:1;visibility:visible">
      <path
         style="stroke:#000000;stroke-width:58.04216766;stroke-miterlimit:4;stroke-dasharray:none;stroke-opacity:1"
         id="path3811"
         d="M 10500,8500 L 12500,8500 L 12500,11500 L 10500,11500 L 10500,8500 z" />
    </g>
    <g
       transform="matrix(2.9437504,0,0,2.9437504,-15514.865,-23437.503)"
       style="fill:#d2d1e7;fill-rule:evenodd;stroke:#000000;stroke-width:38.21655655;stroke-miterlimit:4;stroke-dasharray:none;stroke-opacity:1;visibility:visible"
       id="g3943">
      <path
         style="stroke:#000000;stroke-width:38.21655655;stroke-miterlimit:4;stroke-dasharray:none;stroke-opacity:1"
         d="M 5000,9000 L 7000,9000 L 7000,11000 L 5000,11000 L 5000,9000 z"
         id="path3945" />
    </g>
    <g
       transform="translate(-227.36188,0)"
       id="g5593">
      <rect
         style="fill:#000000;fill-opacity:1;fill-rule:evenodd;stroke:#000000;stroke-width:2.65748048;stroke-linecap:round;stroke-linejoin:round;stroke-miterlimit:4;stroke-dasharray:none;stroke-opacity:1"
         id="rect31090"
         width="1227.3933"
         height="426.9194"
         x="-7979.8599"
         y="8424.1211" />
      <rect
         style="fill:#0f0f0f;fill-opacity:1;fill-rule:evenodd;stroke:none;stroke-width:4;stroke-linecap:round;stroke-linejoin:round;stroke-miterlimit:4;stroke-dasharray:none;stroke-opacity:1"
         id="rect2160"
         width="6000.0005"
         height="5064.9771"
         x="-10375.002"
         y="3449.3074" />
      <rect
         style="fill:#bebebe;fill-opacity:1;fill-rule:evenodd;stroke:none;stroke-width:4;stroke-linecap:round;stroke-linejoin:round;stroke-miterlimit:4;stroke-dasharray:none;stroke-opacity:1;filter:url(#filter12487)"
         id="rect7484"
         width="206.79488"
         height="147.66753"
         x="9.7691097"
         y="48.628605"
         transform="matrix(26.415097,0,0,26.415097,-10375.352,2422.4798)" />
      <rect
         style="fill:none;fill-opacity:1;fill-rule:evenodd;stroke:#000000;stroke-width:2.65748048;stroke-linecap:round;stroke-linejoin:round;stroke-miterlimit:4;stroke-dasharray:none;stroke-opacity:1"
         id="rect9564"
         width="5462.5068"
         height="3900.6521"
         x="-10104.395"
         y="3719.7539" />
      <g
         style="fill-rule:evenodd"
         id="g10535"
         transform="matrix(26.415097,0,0,26.415097,-21846.701,141.62678)">
        <path
           sodipodi:nodetypes="cssssssssssssssssssssssssssssssssssssssssssssssssssssssssssssssssssssssssssssssssssssssssssssssssssssssssssssssssssssccssssssssssssssssssssssssssssssssssssssssssssssssssssssssssssssssssssssssssssssssssssssssssssssssssssssssssssssssssssc"
           id="circle4118"
           d="M 461.57311,204.13166 C 461.57311,204.21987 461.57255,204.30794 461.57143,204.39588 C 461.57032,204.48382 461.56865,204.57163 461.56642,204.6593 C 461.5642,204.74697 461.56143,204.83451 461.5581,204.9219 C 461.55477,205.0093 461.5509,205.09655 461.54648,205.18366 C 461.54206,205.27078 461.53709,205.35774 461.53158,205.44457 C 461.52607,205.53139 461.52002,205.61806 461.51343,205.70459 C 461.50684,205.79111 461.49971,205.87749 461.49205,205.96371 C 461.48438,206.04993 461.47618,206.136 461.46745,206.22191 C 461.45871,206.30783 461.44945,206.39358 461.43965,206.47918 C 461.42986,206.56477 461.41953,206.65021 461.40868,206.73548 C 461.39783,206.82075 461.38646,206.90586 461.37456,206.9908 C 461.36266,207.07574 461.35024,207.16052 461.3373,207.24512 C 461.32437,207.32973 461.31091,207.41416 461.29693,207.49843 C 461.28296,207.58269 461.26847,207.66678 461.25347,207.75069 C 461.23847,207.8346 461.22295,207.91833 461.20693,208.00189 C 461.1909,208.08544 461.17437,208.16882 461.15734,208.25201 C 461.1403,208.3352 461.12276,208.4182 461.10471,208.50102 C 461.08666,208.58384 461.06812,208.66648 461.04907,208.74892 C 461.03002,208.83136 461.01048,208.91362 460.99044,208.99568 C 460.9704,209.07774 460.94986,209.1596 460.92883,209.24127 C 460.9078,209.32294 460.88628,209.40441 460.86427,209.48568 C 460.84226,209.56695 460.81977,209.64803 460.79678,209.72889 C 460.7738,209.80976 460.75033,209.89043 460.72638,209.97088 C 460.70242,210.05134 460.67799,210.13159 460.65308,210.21163 C 460.62817,210.29167 460.60277,210.3715 460.57691,210.45111 C 460.55104,210.53073 460.5247,210.61013 460.49789,210.68932 C 460.47107,210.7685 460.44379,210.84747 460.41603,210.92622 C 460.38828,211.00497 460.36005,211.08349 460.33137,211.1618 C 460.30268,211.2401 460.27353,211.31818 460.24391,211.39603 C 460.21429,211.47388 460.18421,211.55151 460.15368,211.6289 C 460.12314,211.7063 460.09215,211.78346 460.0607,211.86039 C 460.02925,211.93732 459.99734,212.01402 459.96498,212.09048 C 459.93263,212.16694 459.89982,212.24316 459.86656,212.31914 C 459.8333,212.39513 459.79959,212.47087 459.76544,212.54636 C 459.73129,212.62186 459.69669,212.69711 459.66166,212.77212 C 459.62662,212.84713 459.59114,212.92189 459.55522,212.99639 C 459.5193,213.0709 459.48294,213.14516 459.44615,213.21916 C 459.40935,213.29317 459.37213,213.36692 459.33447,213.44041 C 459.29681,213.5139 459.25872,213.58714 459.2202,213.66011 C 459.18168,213.73309 459.14273,213.8058 459.10336,213.87825 C 459.06398,213.9507 459.02418,214.02289 458.98396,214.0948 C 458.94374,214.16672 458.9031,214.23837 458.86204,214.30975 C 458.82098,214.38113 458.7795,214.45224 458.73761,214.52308 C 458.69572,214.59391 458.65341,214.66448 458.61069,214.73476 C 458.56797,214.80504 458.52484,214.87505 458.4813,214.94478 C 458.43776,215.0145 458.39381,215.08395 458.34946,215.15311 C 458.3051,215.22227 458.26034,215.29114 458.21518,215.35973 C 458.17002,215.42832 458.12446,215.49662 458.0785,215.56463 C 458.03254,215.63265 457.98619,215.70036 457.93943,215.76779 C 457.89268,215.83521 457.84553,215.90235 457.79799,215.96918 C 457.75046,216.03601 457.70252,216.10255 457.65421,216.16878 C 457.60589,216.23502 457.55718,216.30095 457.50809,216.36658 C 457.459,216.43222 457.40952,216.49754 457.35966,216.56256 C 457.3098,216.62758 457.25956,216.69229 457.20895,216.75669 C 457.15833,216.82108 457.10733,216.88517 457.05596,216.94895 C 457.00459,217.01272 456.95285,217.07618 456.90073,217.13932 C 456.84861,217.20247 456.79613,217.26529 456.74327,217.32779 C 456.69041,217.3903 456.63719,217.45248 456.5836,217.51434 C 456.53001,217.57619 456.47606,217.63773 456.42175,217.69893 C 456.36743,217.76014 456.31276,217.82102 456.25772,217.88156 C 456.20269,217.94211 456.1473,218.00233 456.09155,218.06221 C 456.0358,218.12209 455.9797,218.18163 455.92325,218.24084 C 455.8668,218.30005 455.80999,218.35892 455.75284,218.41745 C 455.69569,218.47598 455.63819,218.53417 455.58035,218.59201 C 455.5225,218.64986 455.46432,218.70736 455.40578,218.76451 C 455.34725,218.82166 455.28838,218.87846 455.22918,218.93492 C 455.16997,218.99137 455.11042,219.04747 455.05054,219.10322 C 454.99066,219.15896 454.93044,219.21435 454.86989,219.26939 C 454.80935,219.32442 454.74847,219.3791 454.68726,219.43341 C 454.62606,219.48773 454.56453,219.54168 454.50267,219.59527 C 454.44081,219.64886 454.37863,219.70208 454.31613,219.75494 C 454.25362,219.80779 454.1908,219.86028 454.12766,219.9124 C 454.06451,219.96452 454.00105,220.01626 453.93728,220.06763 C 453.87351,220.119 453.80942,220.17 453.74502,220.22061 C 453.68062,220.27123 453.61591,220.32147 453.55089,220.37133 C 453.48587,220.42119 453.42055,220.47066 453.35492,220.51976 C 453.28929,220.56885 453.22335,220.61755 453.15712,220.66587 C 453.09088,220.71419 453.02435,220.76212 452.95751,220.80966 C 452.89068,220.8572 452.82355,220.90435 452.75612,220.9511 C 452.6887,220.99785 452.62098,221.04421 452.55297,221.09017 C 452.48495,221.13613 452.41666,221.18169 452.34806,221.22685 C 452.27948,221.27201 452.2106,221.31677 452.14144,221.36112 C 452.07228,221.40548 452.00283,221.44942 451.93311,221.49296 C 451.86338,221.5365 451.79338,221.57963 451.72309,221.62235 C 451.65281,221.66508 451.58225,221.70738 451.51141,221.74928 C 451.44058,221.79117 451.36947,221.83265 451.29809,221.87371 C 451.22671,221.91477 451.15506,221.95541 451.08314,221.99563 C 451.01122,222.03585 450.93903,222.07565 450.86658,222.11502 C 450.79413,222.1544 450.72142,222.19334 450.64844,222.23186 C 450.57547,222.27038 450.50224,222.30848 450.42874,222.34614 C 450.35525,222.38379 450.2815,222.42102 450.2075,222.45781 C 450.13349,222.49461 450.05924,222.53096 449.98473,222.56688 C 449.91022,222.6028 449.83546,222.63828 449.76045,222.67332 C 449.68545,222.70836 449.61019,222.74296 449.5347,222.77711 C 449.4592,222.81126 449.38346,222.84497 449.30748,222.87823 C 449.2315,222.91148 449.15527,222.94429 449.07881,222.97665 C 449.00235,223.00901 448.92566,223.04091 448.84873,223.07236 C 448.7718,223.10381 448.69463,223.13481 448.61724,223.16535 C 448.53984,223.19588 448.46222,223.22596 448.38436,223.25558 C 448.30651,223.28519 448.22843,223.31435 448.15013,223.34303 C 448.07183,223.37172 447.9933,223.39995 447.91455,223.4277 C 447.8358,223.45545 447.75684,223.48274 447.67765,223.50955 C 447.59846,223.53637 447.51906,223.56271 447.43945,223.58858 C 447.35983,223.61444 447.28,223.63983 447.19996,223.66475 C 447.11992,223.68966 447.03967,223.71409 446.95922,223.73804 C 446.87876,223.76199 446.79809,223.78546 446.71723,223.80845 C 446.63636,223.83143 446.55529,223.85393 446.47402,223.87594 C 446.39274,223.89795 446.31127,223.91947 446.2296,223.9405 C 446.14793,223.96153 446.06607,223.98206 445.98401,224.0021 C 445.90195,224.02215 445.8197,224.04169 445.73725,224.06074 C 445.65481,224.07978 445.57218,224.09833 445.48936,224.11638 C 445.40654,224.13442 445.32353,224.15197 445.24034,224.169 C 445.15715,224.18604 445.07377,224.20257 444.99022,224.2186 C 444.90667,224.23462 444.82293,224.25013 444.73902,224.26514 C 444.65511,224.28014 444.57102,224.29463 444.48676,224.3086 C 444.4025,224.32257 444.31806,224.33603 444.23346,224.34897 C 444.14885,224.36191 444.05047,224.37433 443.96553,224.38623 C 443.96688,204.78567 443.97795,203.09271 443.96553,183.87029 C 444.05047,183.88219 444.14885,183.90141 444.23346,183.91435 C 444.31806,183.92729 444.4025,183.94075 444.48676,183.95472 C 444.57102,183.9687 444.65511,183.98319 444.73902,183.99819 C 444.82293,184.01319 444.90667,184.0287 444.99022,184.04473 C 445.07377,184.06075 445.15715,184.07728 445.24034,184.09432 C 445.32353,184.11136 445.40654,184.1289 445.48936,184.14695 C 445.57218,184.16499 445.65481,184.18354 445.73725,184.20259 C 445.8197,184.22163 445.90195,184.24118 445.98401,184.26122 C 446.06607,184.28126 446.14793,184.3018 446.2296,184.32282 C 446.31127,184.34385 446.39274,184.36537 446.47402,184.38739 C 446.55529,184.40939 446.63636,184.43189 446.71723,184.45488 C 446.79809,184.47786 446.87876,184.50133 446.95922,184.52528 C 447.03967,184.54923 447.11992,184.57366 447.19996,184.59858 C 447.28,184.62349 447.35983,184.64888 447.43945,184.67475 C 447.51906,184.70061 447.59846,184.72696 447.67765,184.75377 C 447.75684,184.78058 447.8358,184.80787 447.91455,184.83562 C 447.9933,184.86338 448.07183,184.8916 448.15013,184.92029 C 448.22843,184.94898 448.30651,184.97813 448.38436,185.00775 C 448.46222,185.03736 448.53984,185.06744 448.61724,185.09798 C 448.69463,185.12851 448.7718,185.15951 448.84873,185.19096 C 448.92566,185.22241 449.00235,185.25432 449.07881,185.28667 C 449.15527,185.31903 449.2315,185.35184 449.30748,185.3851 C 449.38346,185.41836 449.4592,185.45206 449.5347,185.48621 C 449.61019,185.52037 449.68545,185.55496 449.76045,185.59 C 449.83546,185.62504 449.91022,185.66052 449.98473,185.69644 C 450.05924,185.73236 450.13349,185.76872 450.2075,185.80551 C 450.2815,185.8423 450.35525,185.87953 450.42874,185.91719 C 450.50224,185.95485 450.57547,185.99294 450.64844,186.03146 C 450.72142,186.06998 450.79413,186.10893 450.86658,186.1483 C 450.93903,186.18767 451.01122,186.22747 451.08314,186.26769 C 451.15506,186.30791 451.22671,186.34856 451.29809,186.38961 C 451.36947,186.43067 451.44058,186.47215 451.51141,186.51405 C 451.58225,186.55594 451.65281,186.59825 451.72309,186.64097 C 451.79338,186.68369 451.86338,186.72682 451.93311,186.77036 C 452.00283,186.8139 452.07228,186.85785 452.14144,186.9022 C 452.2106,186.94656 452.27948,186.99131 452.34806,187.03647 C 452.41666,187.08163 452.48495,187.12719 452.55297,187.17315 C 452.62098,187.21911 452.6887,187.26547 452.75612,187.31222 C 452.82355,187.35898 452.89068,187.40612 452.95751,187.45366 C 453.02435,187.5012 453.09088,187.54913 453.15712,187.59745 C 453.22335,187.64577 453.28929,187.69448 453.35492,187.74357 C 453.42055,187.79266 453.48587,187.84214 453.55089,187.89199 C 453.61591,187.94185 453.68062,187.99209 453.74502,188.04271 C 453.80942,188.09333 453.87351,188.14432 453.93728,188.19569 C 454.00105,188.24706 454.06451,188.29881 454.12766,188.35092 C 454.1908,188.40304 454.25362,188.45553 454.31613,188.50839 C 454.37863,188.56124 454.44081,188.61447 454.50267,188.66805 C 454.56453,188.72164 454.62606,188.7756 454.68726,188.82991 C 454.74847,188.88423 454.80935,188.9389 454.86989,188.99394 C 454.93044,189.04897 454.99066,189.10436 455.05054,189.16011 C 455.11042,189.21585 455.16997,189.27195 455.22918,189.32841 C 455.28838,189.38486 455.34725,189.44166 455.40578,189.49881 C 455.46432,189.55597 455.5225,189.61347 455.58035,189.67131 C 455.63819,189.72915 455.69569,189.78734 455.75284,189.84587 C 455.80999,189.9044 455.8668,189.96327 455.92325,190.02248 C 455.9797,190.08169 456.0358,190.14124 456.09155,190.20112 C 456.1473,190.261 456.20269,190.32121 456.25772,190.38176 C 456.31276,190.44231 456.36743,190.50318 456.42175,190.56439 C 456.47606,190.6256 456.53001,190.68713 456.5836,190.74899 C 456.63719,190.81084 456.69041,190.87303 456.74327,190.93553 C 456.79613,190.99803 456.84861,191.06086 456.90073,191.124 C 456.95285,191.18714 457.00459,191.2506 457.05596,191.31438 C 457.10733,191.37815 457.15833,191.44224 457.20895,191.50664 C 457.25956,191.57104 457.3098,191.63575 457.35966,191.70077 C 457.40952,191.76578 457.459,191.83111 457.50809,191.89674 C 457.55718,191.96237 457.60589,192.0283 457.65421,192.09454 C 457.70252,192.16077 457.75046,192.22731 457.79799,192.29414 C 457.84553,192.36098 457.89268,192.42811 457.93943,192.49553 C 457.98619,192.56296 458.03254,192.63068 458.0785,192.69869 C 458.12446,192.7667 458.17002,192.835 458.21518,192.90359 C 458.26034,192.97218 458.3051,193.04106 458.34946,193.11022 C 458.39381,193.17938 458.43776,193.24882 458.4813,193.31855 C 458.52484,193.38827 458.56797,193.45828 458.61069,193.52856 C 458.65341,193.59885 458.69572,193.66941 458.73761,193.74024 C 458.7795,193.81108 458.82098,193.88219 458.86204,193.95357 C 458.9031,194.02495 458.94374,194.0966 458.98396,194.16852 C 459.02418,194.24044 459.06398,194.31262 459.10336,194.38507 C 459.14273,194.45752 459.18168,194.53024 459.2202,194.60321 C 459.25872,194.67619 459.29681,194.74942 459.33447,194.82291 C 459.37213,194.89641 459.40935,194.97015 459.44615,195.04416 C 459.48294,195.11816 459.5193,195.19242 459.55522,195.26693 C 459.59114,195.34144 459.62662,195.4162 459.66166,195.4912 C 459.69669,195.56621 459.73129,195.64146 459.76544,195.71696 C 459.79959,195.79246 459.8333,195.8682 459.86656,195.94418 C 459.89982,196.02016 459.93263,196.09638 459.96498,196.17284 C 459.99734,196.2493 460.02925,196.326 460.0607,196.40293 C 460.09215,196.47986 460.12314,196.55702 460.15368,196.63442 C 460.18421,196.71181 460.21429,196.78944 460.24391,196.86729 C 460.27353,196.94514 460.30268,197.02322 460.33137,197.10153 C 460.36005,197.17983 460.38828,197.25836 460.41603,197.33711 C 460.44379,197.41585 460.47107,197.49482 460.49789,197.57401 C 460.5247,197.65319 460.55104,197.73259 460.57691,197.81221 C 460.60277,197.89183 460.62817,197.97165 460.65308,198.05169 C 460.67799,198.13173 460.70242,198.21198 460.72638,198.29244 C 460.75033,198.3729 460.7738,198.45356 460.79678,198.53443 C 460.81977,198.6153 460.84226,198.69637 460.86427,198.77764 C 460.88628,198.85891 460.9078,198.94038 460.92883,199.02205 C 460.94986,199.10372 460.9704,199.18559 460.99044,199.26765 C 461.01048,199.34971 461.03002,199.43196 461.04907,199.5144 C 461.06812,199.59685 461.08666,199.67948 461.10471,199.7623 C 461.12276,199.84512 461.1403,199.92813 461.15734,200.01132 C 461.17437,200.09451 461.1909,200.17788 461.20693,200.26144 C 461.22295,200.34499 461.23847,200.42873 461.25347,200.51264 C 461.26847,200.59655 461.28296,200.68064 461.29693,200.7649 C 461.31091,200.84916 461.32437,200.93359 461.3373,201.0182 C 461.35024,201.10281 461.36266,201.18758 461.37456,201.27252 C 461.38646,201.35746 461.39783,201.44257 461.40868,201.52784 C 461.41953,201.61312 461.42986,201.69855 461.43965,201.78415 C 461.44945,201.86974 461.45871,201.9555 461.46745,202.04141 C 461.47618,202.12732 461.48438,202.21339 461.49205,202.29961 C 461.49971,202.38583 461.50684,202.47221 461.51343,202.55874 C 461.52002,202.64526 461.52607,202.73193 461.53158,202.81876 C 461.53709,202.90558 461.54206,202.99255 461.54648,203.07966 C 461.5509,203.16677 461.55477,203.25403 461.5581,203.34142 C 461.56143,203.42882 461.5642,203.51635 461.56642,203.60402 C 461.56865,203.69169 461.57032,203.7795 461.57143,203.86744 C 461.57255,203.95538 461.57311,204.04346 461.57311,204.13166 z"
           style="fill:#ff6309" />
        <path
           sodipodi:nodetypes="csssssssscc"
           id="circle4120"
           d="M 88.461575,82.381304 C 88.506027,82.238484 88.543743,82.127627 88.594934,81.987905 C 88.646125,81.848182 88.700637,81.710057 88.758375,81.573625 C 88.989327,81.027895 89.271886,80.509253 89.599922,80.023828 C 89.927958,79.538402 90.301472,79.086194 90.714333,78.673333 C 92.365777,77.021889 94.646777,76.000001 97.165001,76.000001 C 99.683225,76.000001 101.96423,77.021889 103.61567,78.673333 C 104.44139,79.499055 105.10972,80.482166 105.57163,81.573625 C 105.62936,81.710057 105.68388,81.848182 105.73507,81.987904 C 105.78626,82.127627 105.82398,82.228328 105.86843,82.371149 C 98.936816,82.371809 94.123884,82.392118 88.461575,82.381304 z"
           style="fill:#ffb515"
           transform="matrix(2.2416829,0,0,2.2416829,369.96674,97.963316)" />
        <path
           sodipodi:nodetypes="cccccssssssssssssssccccccccccccccc"
           style="fill:#ff6309"
           i:knockout="Off"
           d="M 538.891,153.52343 C 564.35876,153.52343 585.48886,172.43427 588.98813,196.95155 L 624.03011,196.95155 C 622.43852,177.68653 614.4514,159.73065 601.0977,145.56994 C 592.54568,149.92553 582.02994,150.00847 573.09684,144.8526 C 570.86188,143.56195 568.86146,142.02177 567.11021,140.28759 C 566.23459,139.42049 565.42126,138.5049 564.67206,137.54774 C 564.29745,137.06916 563.93888,136.58019 563.59657,136.08169 C 563.57518,136.05054 563.55385,136.01934 563.53258,135.98811 C 563.51131,135.95688 563.49011,135.92562 563.46897,135.89431 C 563.44783,135.86301 563.42675,135.83167 563.40574,135.80029 C 563.38473,135.76891 563.36378,135.7375 563.34289,135.70605 C 563.32201,135.6746 563.30119,135.64311 563.28043,135.61159 C 563.25967,135.58007 563.23898,135.54851 563.21834,135.51692 C 563.19771,135.48532 563.17715,135.45369 563.15665,135.42202 C 563.13614,135.39036 563.1157,135.35866 563.09533,135.32692 C 563.07496,135.29518 563.05464,135.26341 563.0344,135.2316 C 563.01415,135.19979 562.99397,135.16795 562.97385,135.13607 C 562.95373,135.10419 562.93368,135.07228 562.91369,135.04033 C 562.8937,135.00838 562.88293,134.99929 562.86307,134.96727 L 507.23922,134.96789 L 507.30775,135.08658 L 507.37628,135.20528 L 507.44481,135.32398 L 507.99304,136.27354 L 508.54127,137.2231 L 509.0895,138.17266 L 509.63773,139.12223 L 510.18597,140.07179 L 510.7342,141.02135 L 511.28243,141.97091 L 515.66828,149.56742 L 520.05414,157.16392 C 525.88027,154.81688 532.23768,153.52343 538.891,153.52343 z"
           id="path4122" />
        <path
           sodipodi:nodetypes="csccccsssssssssssssssssssssssssssccccc"
           style="fill:#c90016"
           i:knockout="Off"
           d="M 588.99037,211.2916 C 585.50007,235.82009 564.36548,254.74214 538.891,254.74214 C 532.2332,254.74214 525.87354,253.44644 520.04741,251.09716 L 502.504,281.48541 C 502.59178,281.52678 505.04028,282.63512 505.06255,282.64472 C 506.09819,282.64259 557.69598,282.64463 559.10374,282.64115 C 559.11157,282.60456 559.11948,282.57272 559.12745,282.53616 C 559.13542,282.4996 559.14347,282.46306 559.15158,282.42654 C 559.15969,282.39001 559.16787,282.3535 559.17612,282.31701 C 559.18437,282.28051 559.19269,282.24403 559.20108,282.20757 C 559.20947,282.17111 559.21793,282.13467 559.22646,282.09824 C 559.23498,282.06181 559.24358,282.0254 559.25224,281.98901 C 559.26091,281.95261 559.26964,281.91623 559.27845,281.87987 C 559.28725,281.84351 559.29612,281.80717 559.30506,281.77084 C 559.31401,281.73452 559.32302,281.69821 559.33209,281.66192 C 559.34117,281.62563 559.35032,281.58935 559.35954,281.55309 C 559.36875,281.51684 559.37804,281.4806 559.38739,281.44438 C 559.39675,281.40816 559.40617,281.37196 559.41566,281.33577 C 559.42515,281.29959 559.43471,281.26342 559.44434,281.22727 C 559.45397,281.19112 559.46367,281.15499 559.47344,281.11888 C 559.4832,281.08277 559.49304,281.04668 559.50294,281.01061 C 559.51284,280.97453 559.52282,280.93848 559.53286,280.90244 C 559.5429,280.8664 559.553,280.83039 559.56318,280.79439 C 559.57336,280.75839 559.5836,280.72241 559.59392,280.68645 C 559.60423,280.65049 559.61461,280.61455 559.62506,280.57863 C 559.63552,280.54271 559.64603,280.50681 559.65662,280.47093 C 559.66721,280.43505 559.67786,280.39919 559.68859,280.36335 C 559.69931,280.32751 559.7101,280.29169 559.72096,280.25589 C 560.06848,279.11026 560.48575,277.98538 560.97095,276.88822 C 561.45615,275.79106 562.00926,274.72162 562.62846,273.68688 C 563.24765,272.65213 563.93293,271.65208 564.68243,270.69369 C 565.43194,269.73531 566.24568,268.81859 567.12181,267.95052 C 567.99794,267.08244 568.93646,266.26301 569.93553,265.4992 C 570.93459,264.73538 571.99421,264.02718 573.11253,263.38158 C 582.04788,258.22123 592.56809,258.30417 601.12236,262.66873 C 614.46485,248.50577 622.443,230.55214 624.03011,211.29384 L 588.99037,211.29384 L 588.99037,211.2916 z"
           id="path4124" />
        <path
           sodipodi:nodetypes="cccccccccccccccccccssssssssssssssssccscsccc"
           style="fill:#ffb515"
           i:knockout="Off"
           d="M 488.28276,204.13166 C 488.28276,188.00724 495.86189,173.62236 507.64194,164.34852 L 506.54576,162.44967 L 505.44957,160.55083 L 504.35339,158.65198 L 503.25721,156.75314 L 502.16102,154.85429 L 501.06484,152.95545 L 499.96866,151.0566 L 498.87248,149.15775 L 497.77629,147.25891 L 496.68011,145.36006 L 495.58393,143.46122 L 494.48774,141.56237 L 493.39156,139.66353 L 492.29538,137.76468 L 491.19919,135.86584 L 490.92515,135.39112 L 490.63938,134.975 C 490.63938,134.975 488.69781,134.96978 488.68987,134.97556 C 488.68194,134.98134 488.67401,134.98712 488.66608,134.99291 C 488.63435,135.01606 488.60264,135.03923 488.57094,135.06242 C 488.31736,135.24794 488.06467,135.43494 487.81287,135.62342 C 487.56108,135.81189 487.31019,136.00184 487.0602,136.19326 C 486.81022,136.38468 486.56115,136.57757 486.313,136.77193 C 486.06485,136.96628 485.81762,137.16211 485.57132,137.35941 C 485.32503,137.5567 485.07966,137.75546 484.83524,137.95569 C 484.59082,138.15591 484.34735,138.3576 484.10483,138.56076 C 483.8623,138.76391 483.62074,138.96852 483.38013,139.1746 C 483.13953,139.38067 482.8999,139.58821 482.66124,139.7972 C 482.42257,140.0062 482.18489,140.21665 481.94819,140.42855 C 481.7115,140.64046 481.47579,140.85382 481.24108,141.06864 C 481.00637,141.28346 480.77265,141.49973 480.53995,141.71745 C 480.30725,141.93517 480.07555,142.15434 479.84488,142.37497 C 479.6142,142.59559 479.38455,142.81766 479.15593,143.04118 C 478.9273,143.26469 478.69971,143.48966 478.47316,143.71607 C 468.32282,153.86641 461.04407,166.12169 457.03819,179.49781 C 465.10825,184.72541 470.45242,193.79975 470.45242,204.13166 C 470.45242,214.46134 465.10825,223.53791 457.03819,228.76327 C 461.04407,242.1394 468.32282,254.39468 478.47316,264.54502 C 482.09572,268.16758 485.9828,271.41577 490.09404,274.29185 L 507.63521,243.90808 C 495.85965,234.63424 488.28276,220.2516 488.28276,204.13166 z"
           id="path4126" />
        <path
           sodipodi:nodetypes="cssssssssssssssssssssssssssssssssssssssssssssssssssscc"
           id="circle4128"
           d="M 103.08716,16.50998 C 103.08023,16.515915 103.07155,16.528811 103.06459,16.534726 C 103.05764,16.540641 103.05068,16.546546 103.04371,16.552441 C 103.03674,16.558335 103.02976,16.56422 103.02277,16.570094 C 103.01578,16.575968 103.00878,16.581832 103.00178,16.587686 C 102.99477,16.593539 102.98776,16.599382 102.98073,16.605215 C 102.97371,16.611048 102.96667,16.616871 102.95963,16.622683 C 102.95259,16.628495 102.94554,16.634297 102.93848,16.640088 C 102.93142,16.64588 102.92435,16.651661 102.91728,16.657432 C 102.9102,16.663202 102.90311,16.668963 102.89602,16.674712 C 102.88892,16.680462 102.88182,16.686202 102.87471,16.691931 C 102.8676,16.69766 102.86047,16.703378 102.85334,16.709086 C 102.84621,16.714794 102.83908,16.720492 102.83193,16.726179 C 102.82478,16.731866 102.81763,16.737543 102.81046,16.743209 C 102.8033,16.748875 102.79612,16.754531 102.78894,16.760176 C 102.78176,16.765821 102.77457,16.771455 102.76737,16.777079 C 102.76017,16.782703 102.75296,16.788316 102.74574,16.793919 C 102.73853,16.799522 102.7313,16.805114 102.72407,16.810696 C 102.71683,16.816277 102.70959,16.821848 102.70234,16.827409 C 102.69509,16.832969 102.68783,16.838519 102.68056,16.844058 C 102.67329,16.849597 102.66602,16.855125 102.65873,16.860643 C 102.65145,16.866161 102.64415,16.871668 102.63685,16.877164 C 102.62955,16.88266 102.62224,16.888146 102.61492,16.893621 C 102.6076,16.899095 102.60027,16.90456 102.59294,16.910013 C 102.5856,16.915466 102.57825,16.920909 102.5709,16.926341 C 102.56355,16.931773 102.55619,16.937194 102.54882,16.942604 C 102.54145,16.948014 102.53407,16.953414 102.52668,16.958803 C 102.5193,16.964191 102.5119,16.969569 102.5045,16.974936 C 102.49709,16.980303 102.48968,16.985659 102.48226,16.991005 C 102.47484,16.99635 102.46741,17.001684 102.45997,17.007008 C 102.45254,17.012331 102.44509,17.017644 102.43764,17.022946 C 102.43019,17.028247 102.42272,17.033538 102.41525,17.038818 C 102.40778,17.044098 102.40031,17.049367 102.39282,17.054625 C 102.38533,17.059883 102.37784,17.06513 102.37033,17.070366 C 102.36283,17.075602 102.35532,17.080827 102.3478,17.086041 C 102.34028,17.091255 102.33275,17.096458 102.32522,17.10165 C 102.31768,17.106842 102.31014,17.112023 102.30258,17.117193 C 102.29503,17.122363 102.28747,17.127521 102.2799,17.132669 C 102.27234,17.137817 102.26476,17.142954 102.25717,17.148079 C 101.77175,17.476115 101.25311,17.758674 100.70738,17.989626 C 100.16165,18.220577 99.588831,18.39992 98.995058,18.521526 C 98.401284,18.643132 97.786554,18.707 97.156998,18.707 C 95.897886,18.707 94.69808,18.451528 93.606621,17.989626 C 93.333757,17.87415 93.067664,17.745772 92.809109,17.605259 C 92.550554,17.464746 92.299537,17.312097 92.056825,17.148079 C 91.814112,16.984061 91.579704,16.808673 91.354366,16.622683 C 91.347324,16.616871 91.340291,16.611048 91.333267,16.605215 C 91.326243,16.599382 91.319228,16.593539 91.312221,16.587686 C 91.305215,16.581832 91.298218,16.575968 91.291229,16.570094 C 91.284241,16.56422 91.277261,16.558335 91.270291,16.552441 C 91.26332,16.546546 91.256358,16.540641 91.249406,16.534726 C 91.242453,16.528811 91.23551,16.522885 91.228575,16.51695 C 91.225107,16.513982 91.221642,16.511011 91.218179,16.508038 C 92.021518,16.50855 102.19843,16.511014 103.08716,16.50998 z"
           style="fill:#c90016"
           transform="matrix(2.2416829,0,0,2.2416829,369.96674,97.963316)" />
      </g>
      <rect
         y="3707.009"
         x="-10117.3"
         height="3900.6521"
         width="5462.5068"
         id="rect3134"
         style="fill:#e1e1e1;fill-opacity:1;fill-rule:evenodd;stroke:none;stroke-width:1;stroke-linecap:round;stroke-linejoin:round;stroke-miterlimit:4;stroke-dasharray:none;stroke-opacity:1" />
      <path
         style="opacity:0.2500003;fill:#ffffff;fill-opacity:1;fill-rule:evenodd;stroke:none;stroke-width:4;stroke-linecap:round;stroke-linejoin:round;stroke-miterlimit:4;stroke-opacity:1;filter:url(#filter6493)"
         d="M 48.739905,65.59916 C 63.589115,51.57488 172.55121,47.45009 181.42385,52.51769 C 198.63793,65.4947 166.19543,103.42938 158.58122,128.88522 C 152.55666,152.47613 165.28324,137.81145 214.79621,57.85782 C 214.79621,57.85782 169.55716,190.81636 142.13946,161.29435 C 129.19765,143.96718 65.354835,59.97263 52.490645,107.90778 C 37.798085,177.54871 29.181435,169.81349 14.915615,195.58902 C 16.321175,167.65093 29.057775,164.48231 29.138075,113.94741 C 29.179715,87.74066 39.623305,74.75935 48.739905,65.59916 z"
         id="rect4528"
         sodipodi:nodetypes="cccccccsc"
         transform="matrix(26.415097,0,0,26.415097,-10375.352,2422.4798)" />
      <path
         style="fill:url(#radialGradient3636);fill-opacity:1;fill-rule:evenodd;stroke:url(#radialGradient3638);stroke-width:3.66901159;stroke-linecap:round;stroke-linejoin:round;stroke-miterlimit:4;stroke-opacity:1"
         d="M -7254.1201,8183.0696 C -7254.1201,8250.1714 -7308.5798,8304.6311 -7375.6821,8304.6311 C -7442.7839,8304.6311 -7497.2436,8250.1714 -7497.2436,8183.0696 C -7497.2436,8115.9674 -7442.7839,8061.5076 -7375.6821,8061.5076 C -7308.5798,8061.5076 -7254.1201,8115.9674 -7254.1201,8183.0696 z"
         id="path12491" />
      <path
         style="opacity:0.15;fill:url(#radialGradient3640);fill-opacity:1;fill-rule:evenodd;stroke:none;stroke-width:1px;stroke-linecap:butt;stroke-linejoin:miter;stroke-opacity:1"
         d="M -10107.016,7613.4505 L -4648.0629,7630.2215 L -4388.1127,8485.5412 L -5687.8636,7996.6654 L -9033.6737,7996.6654 L -10366.967,8502.3122 C -10366.967,8502.3122 -10171.071,7848.2443 -10107.016,7613.4505 z"
         id="path15445"
         sodipodi:nodetypes="ccccccc" />
      <path
         style="font-size:8px;font-style:normal;font-variant:normal;font-weight:normal;font-stretch:normal;text-align:start;line-height:100%;writing-mode:lr-tb;text-anchor:start;fill:#5d5d5d;fill-opacity:1;fill-rule:evenodd;stroke:none;stroke-width:1px;stroke-linecap:butt;stroke-linejoin:miter;stroke-opacity:1;font-family:Astron Boy Wonder"
         d="M -7910.9195,7847.5031 L -7924.0214,7940.4842 L -8028.4138,7940.4842 C -8040.107,7940.4842 -8044.8264,7931.8906 -8042.5723,7914.7031 L -8027.1459,7805.0276 L -7904.7912,7805.0276 L -7908.3836,7831.02 L -8016.7912,7831.02 L -8027.5686,7906.6729 C -8027.9913,7912.0264 -8025.385,7914.7031 -8019.7497,7914.7031 L -7934.3761,7914.7031 L -7926.5572,7859.337 L -8002.2101,7859.337 L -8007.2818,7847.5031 L -7910.9195,7847.5031 M -7899.9308,7800.8012 L -8030.9497,7800.8012 L -8046.7988,7914.0691 C -8047.2214,7916.8868 -8047.4327,7919.634 -8047.4327,7922.3106 C -8047.4327,7932.5948 -8044.3334,7939.3571 -8038.1346,7942.5974 C -8035.0353,7948.2325 -8029.6818,7951.0502 -8022.0742,7951.0502 L -7913.878,7951.0502 L -7899.7195,7849.6163 L -7906.9044,7849.6163 L -7906.0591,7843.2766 L -8007.0704,7843.2766 L -8006.8591,7841.5861 L -7898.2402,7841.5861 L -7893.5912,7807.1408 L -7900.7761,7807.1408 L -7899.9308,7800.8012 M -8004.9572,7863.5634 L -8001.3648,7863.5634 L -7998.6176,7869.9031 L -7932.4742,7869.9031 L -7938.1799,7910.4767 L -8016.5799,7910.4767 L -8008.761,7854.8993 L -8004.9572,7863.5634 M -7819.6818,7886.5974 L -7817.9912,7874.7634 C -7817.2869,7870.8189 -7818.8366,7868.8465 -7822.6402,7868.8465 L -7870.1874,7868.8465 L -7872.7233,7886.5974 L -7819.6818,7886.5974 M -7876.527,7940.4842 C -7888.2202,7940.4842 -7892.9396,7931.8906 -7890.6855,7914.7031 L -7882.444,7855.7446 L -7819.2591,7855.7446 C -7807.5661,7855.7446 -7802.8466,7864.4087 -7805.1006,7881.737 L -7806.7912,7893.7823 L -7873.7799,7893.7823 L -7875.6818,7906.6729 C -7876.1045,7912.0264 -7873.4982,7914.7031 -7867.8629,7914.7031 L -7809.7497,7914.7031 L -7813.3421,7940.4842 L -7876.527,7940.4842 M -7870.1874,7951.0502 L -7803.1987,7951.0502 L -7798.5497,7916.8163 L -7805.7346,7916.8163 L -7804.8893,7910.4767 L -7864.6931,7910.4767 L -7863.8478,7904.3484 L -7796.6478,7904.3484 L -7794.5346,7888.7106 C -7794.1121,7886.034 -7793.9007,7883.2163 -7793.9006,7880.2578 C -7793.9007,7869.9736 -7797.0001,7863.2113 -7803.1987,7859.971 C -7806.2982,7854.3359 -7811.6517,7851.5182 -7819.2591,7851.5182 L -7886.2478,7851.5182 L -7894.9119,7914.0691 C -7895.3346,7916.8868 -7895.5459,7919.634 -7895.5459,7922.3106 C -7895.5459,7932.5948 -7892.4466,7939.3571 -7886.2478,7942.5974 C -7883.1485,7948.2325 -7877.795,7951.0502 -7870.1874,7951.0502 M -7860.2553,7879.4125 L -7823.0629,7879.4125 L -7823.4855,7882.371 L -7860.678,7882.371 L -7860.2553,7879.4125 M -7715.4083,7855.7446 C -7703.7151,7855.7446 -7698.9958,7864.4087 -7701.2498,7881.737 L -7709.4913,7940.4842 L -7730.2007,7940.4842 L -7720.9026,7874.7634 C -7720.1981,7870.8189 -7721.7479,7868.8465 -7725.5517,7868.8465 L -7759.5742,7868.8465 L -7769.7176,7940.0616 L -7783.6648,7940.0616 L -7771.8308,7855.7446 L -7715.4083,7855.7446 M -7775.6346,7851.5182 L -7788.5251,7944.288 L -7781.3402,7944.288 L -7782.1855,7950.6276 L -7759.5742,7950.6276 L -7749.6421,7879.4125 L -7725.9743,7879.4125 L -7735.061,7944.7106 L -7727.8762,7944.7106 L -7728.7215,7951.0502 L -7699.3479,7951.0502 L -7690.6837,7888.7106 C -7690.2611,7886.034 -7690.0498,7883.2163 -7690.0498,7880.2578 C -7690.0498,7869.9736 -7693.1491,7863.2113 -7699.3479,7859.971 C -7702.4472,7854.3359 -7707.8007,7851.5182 -7715.4083,7851.5182 L -7775.6346,7851.5182 M -7605.4718,7886.5974 L -7603.7812,7874.7634 C -7603.077,7870.8189 -7604.6265,7868.8465 -7608.4303,7868.8465 L -7655.9775,7868.8465 L -7658.5133,7886.5974 L -7605.4718,7886.5974 M -7662.3171,7940.4842 C -7674.0103,7940.4842 -7678.7298,7931.8906 -7676.4756,7914.7031 L -7668.2341,7855.7446 L -7605.0492,7855.7446 C -7593.3562,7855.7446 -7588.6367,7864.4087 -7590.8907,7881.737 L -7592.5812,7893.7823 L -7659.5699,7893.7823 L -7661.4718,7906.6729 C -7661.8944,7912.0264 -7659.2883,7914.7031 -7653.6529,7914.7031 L -7595.5397,7914.7031 L -7599.1322,7940.4842 L -7662.3171,7940.4842 M -7655.9775,7951.0502 L -7588.9888,7951.0502 L -7584.3397,7916.8163 L -7591.5246,7916.8163 L -7590.6793,7910.4767 L -7650.4831,7910.4767 L -7649.6378,7904.3484 L -7582.4378,7904.3484 L -7580.3246,7888.7106 C -7579.9022,7886.034 -7579.6909,7883.2163 -7579.6907,7880.2578 C -7579.6909,7869.9736 -7582.7902,7863.2113 -7588.9888,7859.971 C -7592.0883,7854.3359 -7597.4419,7851.5182 -7605.0492,7851.5182 L -7672.0378,7851.5182 L -7680.702,7914.0691 C -7681.1246,7916.8868 -7681.336,7919.634 -7681.336,7922.3106 C -7681.336,7932.5948 -7678.2367,7939.3571 -7672.0378,7942.5974 C -7668.9386,7948.2325 -7663.585,7951.0502 -7655.9775,7951.0502 M -7646.0454,7879.4125 L -7608.8529,7879.4125 L -7609.2756,7882.371 L -7646.468,7882.371 L -7646.0454,7879.4125 M -7561.2133,7881.737 C -7558.6775,7864.4087 -7551.5631,7855.7446 -7539.8699,7855.7446 L -7521.9076,7855.7446 L -7525.5001,7881.737 L -7538.3907,7881.737 C -7544.0261,7881.737 -7547.3367,7884.3434 -7548.3227,7889.5559 L -7555.5076,7940.4842 L -7569.4548,7940.4842 L -7561.2133,7881.737 M -7565.4397,7881.1031 L -7574.3152,7944.7106 L -7567.1303,7944.7106 L -7567.9756,7951.0502 L -7545.3642,7951.0502 L -7537.7567,7896.5295 L -7537.7567,7896.7408 C -7537.1933,7893.7823 -7535.2914,7892.3031 -7532.051,7892.3031 L -7515.3567,7892.3031 L -7510.7076,7857.8578 L -7517.8925,7857.8578 L -7517.0473,7851.5182 L -7539.8699,7851.5182 C -7554.0989,7851.5182 -7562.6223,7861.38 -7565.4397,7881.1031 M -7487.5482,7822.1446 L -7470.2199,7822.1446 L -7473.1784,7842.4314 L -7490.5067,7842.4314 L -7487.5482,7822.1446 M -7476.7708,7855.7446 L -7488.6048,7940.0616 L -7502.552,7940.0616 L -7490.718,7855.7446 L -7476.7708,7855.7446 M -7495.3671,7846.6578 L -7488.1822,7846.6578 L -7488.8161,7851.5182 L -7494.5218,7851.5182 L -7507.4124,7944.288 L -7500.2274,7944.288 L -7501.0727,7950.6276 L -7478.4614,7950.6276 L -7465.5708,7857.8578 L -7472.7557,7857.8578 L -7472.1218,7852.9974 L -7463.035,7852.9974 L -7459.0199,7824.2578 L -7466.2048,7824.2578 L -7465.3595,7817.9182 L -7491.352,7817.9182 L -7495.3671,7846.6578 M -7382.3831,7855.7446 L -7384.0737,7868.8465 L -7433.1001,7868.8465 L -7438.5944,7906.6729 C -7439.0171,7912.0264 -7436.4109,7914.7031 -7430.7756,7914.7031 L -7390.6246,7914.7031 L -7394.2171,7940.4842 L -7439.4397,7940.4842 C -7451.1329,7940.4842 -7455.8525,7931.8906 -7453.5982,7914.7031 L -7445.3567,7855.7446 L -7382.3831,7855.7446 M -7449.1605,7851.5182 L -7457.8246,7914.0691 C -7458.2473,7916.8868 -7458.4586,7919.634 -7458.4586,7922.3106 C -7458.4586,7932.5948 -7455.3593,7939.3571 -7449.1605,7942.5974 C -7446.0612,7948.2325 -7440.7076,7951.0502 -7433.1001,7951.0502 L -7384.0737,7951.0502 L -7379.4246,7916.8163 L -7386.6095,7916.8163 L -7385.7642,7910.4767 L -7427.6057,7910.4767 L -7423.168,7879.4125 L -7373.9303,7879.4125 L -7371.1831,7857.8578 L -7378.368,7857.8578 L -7377.5227,7851.5182 L -7449.1605,7851.5182 M -7210.051,7805.0276 L -7229.0699,7940.4842 L -7246.6095,7940.4842 L -7230.9718,7829.7521 L -7289.085,7892.7257 L -7331.5604,7828.0616 L -7347.4095,7940.4842 L -7364.7378,7940.4842 L -7345.7189,7805.0276 L -7328.3906,7805.0276 L -7281.4774,7873.4955 L -7229.4925,7818.3408 L -7227.5906,7805.0276 L -7210.051,7805.0276 M -7231.3944,7800.8012 L -7233.5076,7816.4389 L -7279.9982,7865.6767 L -7319.9378,7807.1408 L -7322.051,7807.1408 L -7326.2774,7800.8012 L -7349.5227,7800.8012 L -7369.5982,7944.7106 L -7362.4133,7944.7106 L -7363.2586,7951.0502 L -7337.2661,7951.0502 L -7323.1076,7848.9823 L -7289.7189,7899.6993 L -7288.451,7898.4314 L -7283.3793,7906.0389 L -7239.4246,7858.4917 L -7251.4699,7944.7106 L -7244.285,7944.7106 L -7245.1303,7951.0502 L -7218.9265,7951.0502 L -7198.851,7807.1408 L -7206.0359,7807.1408 L -7205.1906,7800.8012 L -7231.3944,7800.8012 M -7181.0472,7906.6729 C -7181.4699,7912.0264 -7178.8638,7914.7031 -7173.2284,7914.7031 L -7129.0623,7914.7031 L -7123.3567,7874.7634 C -7122.6524,7870.8189 -7124.2019,7868.8465 -7128.0057,7868.8465 L -7175.5529,7868.8465 L -7181.0472,7906.6729 M -7181.8925,7940.4842 C -7193.5857,7940.4842 -7198.3053,7931.8906 -7196.051,7914.7031 L -7187.8095,7855.7446 L -7124.6246,7855.7446 C -7112.9317,7855.7446 -7108.2121,7864.4087 -7110.4661,7881.737 L -7118.7076,7940.4842 L -7181.8925,7940.4842 M -7175.5529,7951.0502 L -7108.5642,7951.0502 L -7099.9,7888.7106 C -7099.4777,7886.034 -7099.2663,7883.2163 -7099.2661,7880.2578 C -7099.2663,7869.9736 -7102.3656,7863.2113 -7108.5642,7859.971 C -7111.6637,7854.3359 -7117.0173,7851.5182 -7124.6246,7851.5182 L -7191.6133,7851.5182 L -7200.2774,7914.0691 C -7200.7001,7916.8868 -7200.9114,7919.634 -7200.9114,7922.3106 C -7200.9114,7932.5948 -7197.8121,7939.3571 -7191.6133,7942.5974 C -7188.514,7948.2325 -7183.1604,7951.0502 -7175.5529,7951.0502 M -7165.6208,7879.4125 L -7128.4284,7879.4125 L -7132.8661,7910.4767 L -7170.0585,7910.4767 L -7165.6208,7879.4125 M -7020.7736,7855.7446 C -7009.0807,7855.7446 -7004.3611,7864.4087 -7006.6151,7881.737 L -7014.8566,7940.4842 L -7035.5661,7940.4842 L -7026.268,7874.7634 C -7025.5637,7870.8189 -7027.1132,7868.8465 -7030.917,7868.8465 L -7064.9397,7868.8465 L -7075.0831,7940.0616 L -7089.0302,7940.0616 L -7077.1963,7855.7446 L -7020.7736,7855.7446 M -7081,7851.5182 L -7093.8906,7944.288 L -7086.7057,7944.288 L -7087.551,7950.6276 L -7064.9397,7950.6276 L -7055.0076,7879.4125 L -7031.3397,7879.4125 L -7040.4265,7944.7106 L -7033.2416,7944.7106 L -7034.0868,7951.0502 L -7004.7132,7951.0502 L -6996.0491,7888.7106 C -6995.6267,7886.034 -6995.4154,7883.2163 -6995.4151,7880.2578 C -6995.4154,7869.9736 -6998.5147,7863.2113 -7004.7132,7859.971 C -7007.8128,7854.3359 -7013.1661,7851.5182 -7020.7736,7851.5182 L -7081,7851.5182 M -6968.7393,7822.1446 L -6951.411,7822.1446 L -6954.3695,7842.4314 L -6971.6978,7842.4314 L -6968.7393,7822.1446 M -6957.962,7855.7446 L -6969.7959,7940.0616 L -6983.7431,7940.0616 L -6971.9091,7855.7446 L -6957.962,7855.7446 M -6976.5582,7846.6578 L -6969.3733,7846.6578 L -6970.0072,7851.5182 L -6975.7129,7851.5182 L -6988.6035,7944.288 L -6981.4186,7944.288 L -6982.2638,7950.6276 L -6959.6525,7950.6276 L -6946.762,7857.8578 L -6953.9469,7857.8578 L -6953.3129,7852.9974 L -6944.2261,7852.9974 L -6940.211,7824.2578 L -6947.3959,7824.2578 L -6946.5506,7817.9182 L -6972.5431,7817.9182 L -6976.5582,7846.6578 M -6920.6308,7940.4842 C -6932.3237,7940.4842 -6937.0433,7931.8906 -6934.7893,7914.7031 L -6921.6874,7822.3559 L -6907.7403,7822.3559 L -6912.6006,7855.7446 L -6890.8346,7855.7446 L -6899.2874,7868.8465 L -6914.2912,7868.8465 L -6919.7855,7906.6729 C -6920.2082,7912.0264 -6917.6018,7914.7031 -6911.9667,7914.7031 L -6899.0761,7914.7031 L -6902.6686,7940.4842 L -6920.6308,7940.4842 M -6914.2912,7951.0502 L -6892.5252,7951.0502 L -6887.8761,7916.8163 L -6895.061,7916.8163 L -6894.2157,7910.4767 L -6908.7969,7910.4767 L -6904.3591,7879.4125 L -6890.6233,7879.4125 L -6876.6761,7857.8578 L -6887.2421,7857.8578 L -6883.0157,7851.5182 L -6900.344,7851.5182 L -6896.5403,7824.4691 L -6903.9365,7824.4691 L -6902.8799,7818.1295 L -6925.4912,7818.1295 L -6939.0157,7914.0691 C -6939.4384,7916.8868 -6939.6497,7919.634 -6939.6497,7922.3106 C -6939.6497,7932.5948 -6936.5501,7939.3571 -6930.3516,7942.5974 C -6927.252,7948.2325 -6921.8987,7951.0502 -6914.2912,7951.0502 M -6854.5733,7906.6729 C -6854.9959,7912.0264 -6852.3895,7914.7031 -6846.7544,7914.7031 L -6802.5884,7914.7031 L -6796.8827,7874.7634 C -6796.1782,7870.8189 -6797.728,7868.8465 -6801.5318,7868.8465 L -6849.0789,7868.8465 L -6854.5733,7906.6729 M -6855.4186,7940.4842 C -6867.1115,7940.4842 -6871.831,7931.8906 -6869.577,7914.7031 L -6861.3355,7855.7446 L -6798.1506,7855.7446 C -6786.4574,7855.7446 -6781.7381,7864.4087 -6783.9921,7881.737 L -6792.2336,7940.4842 L -6855.4186,7940.4842 M -6849.0789,7951.0502 L -6782.0902,7951.0502 L -6773.4261,7888.7106 C -6773.0034,7886.034 -6772.7921,7883.2163 -6772.7921,7880.2578 C -6772.7921,7869.9736 -6775.8914,7863.2113 -6782.0902,7859.971 C -6785.1895,7854.3359 -6790.5431,7851.5182 -6798.1506,7851.5182 L -6865.1393,7851.5182 L -6873.8035,7914.0691 C -6874.2261,7916.8868 -6874.4374,7919.634 -6874.4374,7922.3106 C -6874.4374,7932.5948 -6871.3379,7939.3571 -6865.1393,7942.5974 C -6862.0398,7948.2325 -6856.6865,7951.0502 -6849.0789,7951.0502 M -6839.1469,7879.4125 L -6801.9544,7879.4125 L -6806.3921,7910.4767 L -6843.5846,7910.4767 L -6839.1469,7879.4125 M -6754.3148,7881.737 C -6751.7789,7864.4087 -6744.6643,7855.7446 -6732.9714,7855.7446 L -6715.0091,7855.7446 L -6718.6016,7881.737 L -6731.4921,7881.737 C -6737.1273,7881.737 -6740.4379,7884.3434 -6741.4242,7889.5559 L -6748.6091,7940.4842 L -6762.5563,7940.4842 L -6754.3148,7881.737 M -6758.5412,7881.1031 L -6767.4167,7944.7106 L -6760.2317,7944.7106 L -6761.077,7951.0502 L -6738.4657,7951.0502 L -6730.8582,7896.5295 L -6730.8582,7896.7408 C -6730.2945,7893.7823 -6728.3926,7892.3031 -6725.1525,7892.3031 L -6708.4582,7892.3031 L -6703.8091,7857.8578 L -6710.994,7857.8578 L -6710.1487,7851.5182 L -6732.9714,7851.5182 C -6747.2001,7851.5182 -6755.7235,7861.38 -6758.5412,7881.1031"
         id="text17405" />
      <g
         id="g22279"
         transform="matrix(26.415097,0,0,26.415097,-9981.0445,1549.3703)"
         style="fill-rule:evenodd;stroke:url(#radialGradient3648);stroke-width:0.10060461;stroke-opacity:1">
        <g
           id="g23272"
           style="stroke:url(#radialGradient3646);stroke-width:0.10060461">
          <path
             style="opacity:1;fill:#646464;fill-opacity:0;stroke:url(#radialGradient3642);stroke-width:0.10060461;stroke-linecap:round;stroke-linejoin:round;stroke-miterlimit:4;stroke-dasharray:none;stroke-opacity:1"
             d="M 99.972718,249.15697 C 100.09812,249.24171 100.21493,249.33819 100.32158,249.44484 C 100.53489,249.65815 100.70753,249.91211 100.82685,250.19406 C 100.94618,250.47601 101.01217,250.78595 101.01217,251.11121 C 101.01217,252.41224 99.956257,253.46816 98.65522,253.46816 C 97.354183,253.46816 96.298269,252.41224 96.298269,251.11121 C 96.298269,250.78595 96.364264,250.47601 96.483584,250.19406 C 96.602905,249.91211 96.775552,249.65815 96.988856,249.44484 C 97.095508,249.33819 97.212324,249.24171 97.337721,249.15697"
             id="path20336"
             sodipodi:nodetypes="csscsssss" />
          <path
             style="fill:none;fill-rule:evenodd;stroke:url(#radialGradient3644);stroke-width:0.10060461px;stroke-linecap:round;stroke-linejoin:miter;stroke-opacity:1"
             d="M 98.65522,248.75425 L 98.65522,251.56015"
             id="path21308" />
        </g>
      </g>
      <path
         sodipodi:type="arc"
         style="fill:url(#radialGradient3650);fill-opacity:1;fill-rule:evenodd;stroke:url(#radialGradient3652);stroke-width:0.10060461;stroke-linecap:round;stroke-linejoin:round;stroke-miterlimit:4;stroke-dasharray:none;stroke-opacity:1"
         id="path25226"
         sodipodi:cx="85.55294"
         sodipodi:cy="215.24489"
         sodipodi:rx="1.9840664"
         sodipodi:ry="1.9840664"
         d="M 87.537007,215.24489 A 1.9840664,1.9840664 0 1 1 83.568874,215.24489 A 1.9840664,1.9840664 0 1 1 87.537007,215.24489 z"
         transform="matrix(26.415097,0,0,26.415097,-10163.635,2427.3016)" />
      <path
         transform="matrix(26.415097,0,0,26.415097,-10691.936,2427.3016)"
         d="M 87.537007,215.24489 A 1.9840664,1.9840664 0 1 1 83.568874,215.24489 A 1.9840664,1.9840664 0 1 1 87.537007,215.24489 z"
         sodipodi:ry="1.9840664"
         sodipodi:rx="1.9840664"
         sodipodi:cy="215.24489"
         sodipodi:cx="85.55294"
         id="path27188"
         style="fill:url(#radialGradient3654);fill-opacity:1;fill-rule:evenodd;stroke:url(#radialGradient3656);stroke-width:0.10060461;stroke-linecap:round;stroke-linejoin:round;stroke-miterlimit:4;stroke-dasharray:none;stroke-opacity:1"
         sodipodi:type="arc" />
      <path
         transform="matrix(26.415097,0,0,26.415097,-9107.0468,2427.3016)"
         d="M 87.537007,215.24489 A 1.9840664,1.9840664 0 1 1 83.568874,215.24489 A 1.9840664,1.9840664 0 1 1 87.537007,215.24489 z"
         sodipodi:ry="1.9840664"
         sodipodi:rx="1.9840664"
         sodipodi:cy="215.24489"
         sodipodi:cx="85.55294"
         id="path27194"
         style="fill:url(#radialGradient3658);fill-opacity:1;fill-rule:evenodd;stroke:url(#radialGradient3660);stroke-width:0.10060461;stroke-linecap:round;stroke-linejoin:round;stroke-miterlimit:4;stroke-dasharray:none;stroke-opacity:1"
         sodipodi:type="arc" />
      <path
         sodipodi:type="arc"
         style="fill:url(#radialGradient3662);fill-opacity:1;fill-rule:evenodd;stroke:url(#radialGradient3664);stroke-width:0.10060461;stroke-linecap:round;stroke-linejoin:round;stroke-miterlimit:4;stroke-dasharray:none;stroke-opacity:1"
         id="path27200"
         sodipodi:cx="85.55294"
         sodipodi:cy="215.24489"
         sodipodi:rx="1.9840664"
         sodipodi:ry="1.9840664"
         d="M 87.537007,215.24489 A 1.9840664,1.9840664 0 1 1 83.568874,215.24489 A 1.9840664,1.9840664 0 1 1 87.537007,215.24489 z"
         transform="matrix(26.415097,0,0,26.415097,-8578.7448,2427.3016)" />
      <path
         style="fill:url(#linearGradient3666);fill-opacity:1;fill-rule:evenodd;stroke:none;stroke-width:1.18572474px;stroke-linecap:butt;stroke-linejoin:miter;stroke-opacity:1"
         d="M -8949.8343,9089.8093 C -8183.2976,8703.4523 -6596.4624,8690.403 -5819.7027,9089.0327 C -6863.08,9170.8521 -7906.4571,9169.5359 -8949.8343,9089.8093 z"
         id="path31092"
         sodipodi:nodetypes="ccc" />
    </g>
    <text
       sodipodi:linespacing="125%"
       id="text5775"
       y="5983.4526"
       x="2126.7642"
       style="font-size:900.00018311px;font-style:normal;font-variant:normal;font-weight:300;font-stretch:normal;text-align:center;line-height:125%;writing-mode:lr-tb;text-anchor:middle;fill:#000000;fill-opacity:1;fill-rule:evenodd;stroke:none;stroke-width:1px;stroke-linecap:butt;stroke-linejoin:miter;stroke-opacity:1;font-family:Bookman Old Style;-inkscape-font-specification:Bookman Old Style Light"
       xml:space="preserve"><tspan
         y="5983.4526"
         x="2126.7642"
         id="tspan5781"
         sodipodi:role="line">UART</tspan></text>
    <g
       transform="matrix(2.5687502,0,0,0.9625001,-6767.988,-5875.0018)"
       id="g5801"
       style="fill:#7873cd;fill-rule:evenodd;stroke:#000000;stroke-width:71.54695892;stroke-miterlimit:4;stroke-dasharray:none;stroke-opacity:1;visibility:visible">
      <path
         style="stroke:#000000;stroke-width:71.54695892;stroke-miterlimit:4;stroke-dasharray:none;stroke-opacity:1"
         id="path5803"
         d="M 10500,8500 L 12500,8500 L 12500,11500 L 10500,11500 L 10500,8500 z" />
    </g>
    <text
       sodipodi:linespacing="125%"
       id="text5809"
       y="7780.9751"
       x="12265.79"
       style="font-size:825.00006104px;font-style:normal;font-variant:normal;font-weight:300;font-stretch:normal;text-align:center;line-height:125%;writing-mode:lr-tb;text-anchor:middle;fill:#000000;fill-opacity:1;fill-rule:evenodd;stroke:none;stroke-width:1px;stroke-linecap:butt;stroke-linejoin:miter;stroke-opacity:1;font-family:Bookman Old Style;-inkscape-font-specification:Bookman Old Style Light"
       xml:space="preserve"><tspan
         y="7780.9751"
         x="12265.79"
         id="tspan5813"
         sodipodi:role="line">CPU</tspan></text>
    <text
       sodipodi:linespacing="125%"
       id="text5815"
       y="4040.6426"
       x="22760.957"
       style="font-size:825.00006104px;font-style:normal;font-variant:normal;font-weight:300;font-stretch:normal;text-align:center;line-height:125%;writing-mode:lr-tb;text-anchor:middle;fill:#000000;fill-opacity:1;fill-rule:evenodd;stroke:none;stroke-width:1px;stroke-linecap:butt;stroke-linejoin:miter;stroke-opacity:1;font-family:Bookman Old Style;-inkscape-font-specification:Bookman Old Style Light"
       xml:space="preserve"><tspan
         y="4040.6426"
         x="22760.957"
         id="tspan3501"
         sodipodi:role="line">Flash</tspan></text>
    <path
       id="path4151"
       d="M -852.36247,4499.9993 L -4278.3426,4499.9993"
       style="fill:none;fill-rule:evenodd;stroke:#000000;stroke-width:112.50000763;stroke-linecap:butt;stroke-linejoin:miter;marker-end:url(#TriangleOutM);stroke-miterlimit:4;stroke-dasharray:none;stroke-opacity:1" />
    <path
       id="path4153"
       d="M -4602.3628,7499.9996 L -1176.3826,7499.9996"
       style="fill:none;fill-rule:evenodd;stroke:#000000;stroke-width:112.50000763;stroke-linecap:butt;stroke-linejoin:miter;marker-end:url(#TriangleOutM);stroke-miterlimit:4;stroke-dasharray:none;stroke-opacity:1" />
    <text
       sodipodi:linespacing="125%"
       id="text4155"
       y="4119.4087"
       x="-2352.3623"
       style="font-size:825.00006104px;font-style:normal;font-variant:normal;font-weight:300;font-stretch:normal;text-align:start;line-height:125%;writing-mode:lr-tb;text-anchor:start;fill:#000000;fill-opacity:1;fill-rule:evenodd;stroke:none;stroke-width:1px;stroke-linecap:butt;stroke-linejoin:miter;stroke-opacity:1;font-family:Bookman Old Style;-inkscape-font-specification:Bookman Old Style Light"
       xml:space="preserve"><tspan
         y="4119.4087"
         x="-2352.3623"
         id="tspan4159"
         sodipodi:role="line">Tx</tspan></text>
    <text
       sodipodi:linespacing="125%"
       id="text4161"
       y="7109.627"
       x="-2399.8965"
       style="font-size:825.00006104px;font-style:normal;font-variant:normal;font-weight:300;font-stretch:normal;text-align:start;line-height:125%;writing-mode:lr-tb;text-anchor:start;fill:#000000;fill-opacity:1;fill-rule:evenodd;stroke:none;stroke-width:1px;stroke-linecap:butt;stroke-linejoin:miter;stroke-opacity:1;font-family:Bookman Old Style;-inkscape-font-specification:Bookman Old Style Light"
       xml:space="preserve"><tspan
         y="7109.627"
         x="-2399.8965"
         id="tspan4165"
         sodipodi:role="line">Rx</tspan></text>
    <text
       sodipodi:linespacing="100%"
       id="text4167"
       y="9162.0068"
       x="7002.4966"
       style="font-size:825.00006104px;font-style:normal;font-variant:normal;font-weight:300;font-stretch:normal;text-align:center;line-height:100%;writing-mode:lr-tb;text-anchor:middle;fill:#000000;fill-opacity:1;fill-rule:evenodd;stroke:none;stroke-width:1px;stroke-linecap:butt;stroke-linejoin:miter;stroke-opacity:1;font-family:Bookman Old Style;-inkscape-font-specification:Bookman Old Style Light"
       xml:space="preserve"><tspan
         y="9162.0068"
         x="7002.4966"
         id="tspan4171"
         sodipodi:role="line">Data</tspan><tspan
         y="9987.0068"
         x="7002.4966"
         id="tspan4173"
         sodipodi:role="line">Bus</tspan></text>
    <text
       sodipodi:linespacing="125%"
       id="text4418"
       y="1489.4521"
       x="17517.256"
       style="font-size:1050.00012207px;font-style:normal;font-variant:normal;font-weight:300;font-stretch:normal;text-align:center;line-height:125%;writing-mode:lr-tb;text-anchor:middle;fill:#000000;fill-opacity:1;fill-rule:evenodd;stroke:none;stroke-width:1px;stroke-linecap:butt;stroke-linejoin:miter;stroke-opacity:1;font-family:Bookman Old Style;-inkscape-font-specification:Bookman Old Style Light"
       xml:space="preserve"><tspan
         y="1489.4521"
         x="17517.256"
         id="tspan4422"
         sodipodi:role="line">Or1ksim ISS</tspan></text>
    <text
       sodipodi:linespacing="125%"
       id="text4424"
       y="5953.3501"
       x="-7591.3774"
       style="font-size:900.00018311px;font-style:normal;font-variant:normal;font-weight:300;font-stretch:normal;text-align:center;line-height:125%;writing-mode:lr-tb;text-anchor:middle;fill:#000000;fill-opacity:1;fill-rule:evenodd;stroke:none;stroke-width:1px;stroke-linecap:butt;stroke-linejoin:miter;stroke-opacity:1;font-family:Bookman Old Style;-inkscape-font-specification:Bookman Old Style Light"
       xml:space="preserve"><tspan
         y="5953.3501"
         x="-7591.3774"
         id="tspan4428"
         sodipodi:role="line">xterm</tspan></text>
    <path
       id="path4642"
       d="M 5203.8881,3749.9992 L 9359.8694,3749.9992"
       style="fill:none;fill-rule:evenodd;stroke:#000000;stroke-width:112.50001526;stroke-linecap:square;stroke-linejoin:miter;marker-end:url(#TriangleOutM);stroke-miterlimit:4;stroke-dasharray:none;stroke-opacity:1" />
    <text
       sodipodi:linespacing="100%"
       id="text4644"
       y="3362.1904"
       x="7028.479"
       style="font-size:825.00006104px;font-style:normal;font-variant:normal;font-weight:300;font-stretch:normal;text-align:center;line-height:100%;writing-mode:lr-tb;text-anchor:middle;fill:#000000;fill-opacity:1;fill-rule:evenodd;stroke:none;stroke-width:1px;stroke-linecap:butt;stroke-linejoin:miter;stroke-opacity:1;font-family:Bookman Old Style;-inkscape-font-specification:Bookman Old Style Light"
       xml:space="preserve"><tspan
         y="3362.1904"
         x="7028.479"
         id="tspan4650"
         sodipodi:role="line">IRQ</tspan></text>
    <g
       transform="matrix(2.5687502,0,0,0.4625001,-6767.988,2124.9984)"
       id="g6980"
       style="fill:#7873cd;fill-rule:evenodd;stroke:#000000;stroke-width:103.21330261;stroke-miterlimit:4;stroke-dasharray:none;stroke-opacity:1;visibility:visible">
      <path
         style="stroke:#000000;stroke-width:103.21330261;stroke-miterlimit:4;stroke-dasharray:none;stroke-opacity:1"
         id="path6982"
         d="M 10500,8500 L 12500,8500 L 12500,11500 L 10500,11500 L 10500,8500 z" />
    </g>
    <g
       transform="matrix(2.5687502,0,0,0.9625001,-6767.988,124.99877)"
       id="g6984"
       style="fill:#7873cd;fill-rule:evenodd;stroke:#000000;stroke-width:71.54696655;stroke-miterlimit:4;stroke-dasharray:none;stroke-opacity:1;visibility:visible">
      <path
         style="stroke:#000000;stroke-width:71.54696655;stroke-miterlimit:4;stroke-dasharray:none;stroke-opacity:1"
         id="path6986"
         d="M 10500,8500 L 12500,8500 L 12500,11500 L 10500,11500 L 10500,8500 z" />
    </g>
    <g
       transform="matrix(1.0687501,0,0,0.9625001,5232.0127,-4375.0016)"
       id="g6988"
       style="fill:#7873cd;fill-rule:evenodd;stroke:#000000;stroke-width:110.92106628;stroke-miterlimit:4;stroke-dasharray:none;stroke-opacity:1;visibility:visible">
      <path
         style="stroke:#000000;stroke-width:110.92106628;stroke-miterlimit:4;stroke-dasharray:none;stroke-opacity:1"
         id="path6990"
         d="M 10500,8500 L 12500,8500 L 12500,11500 L 10500,11500 L 10500,8500 z" />
    </g>
    <g
       transform="matrix(1.0687501,0,0,0.9625001,5232.0127,124.99886)"
       id="g6992"
       style="fill:#7873cd;fill-rule:evenodd;stroke:#000000;stroke-width:110.92106628;stroke-miterlimit:4;stroke-dasharray:none;stroke-opacity:1;visibility:visible">
      <path
         style="stroke:#000000;stroke-width:110.92106628;stroke-miterlimit:4;stroke-dasharray:none;stroke-opacity:1"
         id="path6994"
         d="M 10500,8500 L 12500,8500 L 12500,11500 L 10500,11500 L 10500,8500 z" />
    </g>
    <g
       transform="matrix(1.0687501,0,0,0.7125001,-1517.988,-3750.0019)"
       id="g6996"
       style="fill:#7873cd;fill-rule:evenodd;stroke:#000000;stroke-width:128.92050171;stroke-miterlimit:4;stroke-dasharray:none;stroke-opacity:1;visibility:visible">
      <path
         style="stroke:#000000;stroke-width:128.92050171;stroke-miterlimit:4;stroke-dasharray:none;stroke-opacity:1"
         id="path6998"
         d="M 10500,8500 L 12500,8500 L 12500,11500 L 10500,11500 L 10500,8500 z" />
    </g>
    <g
       transform="matrix(1.0687501,0,0,0.7125001,1482.0122,-3750.0015)"
       id="g7000"
       style="fill:#7873cd;fill-rule:evenodd;stroke:#000000;stroke-width:128.92050171;stroke-miterlimit:4;stroke-dasharray:none;stroke-opacity:1;visibility:visible">
      <path
         style="stroke:#000000;stroke-width:128.92050171;stroke-miterlimit:4;stroke-dasharray:none;stroke-opacity:1"
         id="path7002"
         d="M 10500,8500 L 12500,8500 L 12500,11500 L 10500,11500 L 10500,8500 z" />
    </g>
    <path
       id="path7523"
       d="M 18935.414,8999.9998 L 19859.89,8999.9998"
       style="fill:none;fill-rule:evenodd;stroke:#000000;stroke-width:224.99998474;stroke-linecap:butt;stroke-linejoin:miter;marker-start:url(#TriangleInS);marker-end:url(#TriangleOutS);stroke-miterlimit:4;stroke-dasharray:none;stroke-opacity:1" />
    <path
       id="path10140"
       d="M 18935.414,4499.9993 L 19859.89,4499.9993"
       style="fill:none;fill-rule:evenodd;stroke:#000000;stroke-width:224.99998474;stroke-linecap:butt;stroke-linejoin:miter;marker-start:url(#TriangleInS);marker-end:url(#TriangleOutS);stroke-miterlimit:4;stroke-dasharray:none;stroke-opacity:1" />
    <path
       id="path10142"
       d="M 19397.652,8887.4997 L 19397.652,4555.5649"
       style="fill:none;fill-rule:evenodd;stroke:#000000;stroke-width:225.00001526;stroke-linecap:butt;stroke-linejoin:miter;stroke-miterlimit:4;stroke-dasharray:none;stroke-opacity:1" />
    <path
       id="path10144"
       d="M 19510.139,6749.9994 L 19859.877,6749.9994"
       style="fill:none;fill-rule:evenodd;stroke:#000000;stroke-width:224.99995422;stroke-linecap:butt;stroke-linejoin:miter;marker-start:none;marker-end:url(#TriangleOutS);stroke-miterlimit:4;stroke-dasharray:none;stroke-opacity:1" />
    <path
       id="path10673"
       d="M 15185.414,8999.9998 L 16109.89,8999.9998"
       style="fill:none;fill-rule:evenodd;stroke:#000000;stroke-width:224.99998474;stroke-linecap:butt;stroke-linejoin:miter;marker-start:url(#TriangleInS);marker-end:url(#TriangleOutS);stroke-miterlimit:4;stroke-dasharray:none;stroke-opacity:1" />
    <path
       id="path10675"
       d="M 15185.414,5999.9995 L 16109.89,5999.9995"
       style="fill:none;fill-rule:evenodd;stroke:#000000;stroke-width:224.99998474;stroke-linecap:butt;stroke-linejoin:miter;marker-start:url(#TriangleInS);marker-end:url(#TriangleOutS);stroke-miterlimit:4;stroke-dasharray:none;stroke-opacity:1" />
    <path
       id="path10677"
       d="M 2148.4241,9315.6939 L 2148.4241,10527.902 L 16108.882,10527.902"
       style="fill:none;fill-rule:evenodd;stroke:#000000;stroke-width:225;stroke-linecap:butt;stroke-linejoin:miter;marker-start:url(#TriangleInS);marker-end:url(#TriangleOutS);stroke-miterlimit:4;stroke-dasharray:none;stroke-opacity:1" />
    <path
       id="path3497"
       d="M 10772.638,5249.9994 L 10772.638,4499.9993"
       style="fill:none;fill-rule:evenodd;stroke:#000000;stroke-width:112.50000763;stroke-linecap:square;stroke-linejoin:miter;stroke-miterlimit:4;stroke-dasharray:none;stroke-opacity:1" />
    <path
       id="path3499"
       d="M 13772.638,5249.9994 L 13772.638,4499.9993"
       style="fill:none;fill-rule:evenodd;stroke:#000000;stroke-width:112.50000763;stroke-linecap:square;stroke-linejoin:miter;stroke-miterlimit:4;stroke-dasharray:none;stroke-opacity:1" />
    <text
       sodipodi:linespacing="125%"
       id="text3503"
       y="7030.9746"
       x="22770.424"
       style="font-size:825.00006104px;font-style:normal;font-variant:normal;font-weight:300;font-stretch:normal;text-align:center;line-height:125%;writing-mode:lr-tb;text-anchor:middle;fill:#000000;fill-opacity:1;fill-rule:evenodd;stroke:none;stroke-width:1px;stroke-linecap:butt;stroke-linejoin:miter;stroke-opacity:1;font-family:Bookman Old Style;-inkscape-font-specification:Bookman Old Style Light"
       xml:space="preserve"><tspan
         y="7030.9746"
         x="22770.424"
         id="tspan3513"
         sodipodi:role="line">SRAM</tspan></text>
    <text
       sodipodi:linespacing="125%"
       id="text3507"
       y="10030.976"
       x="22774.451"
       style="font-size:825.00006104px;font-style:normal;font-variant:normal;font-weight:300;font-stretch:normal;text-align:center;line-height:125%;writing-mode:lr-tb;text-anchor:middle;fill:#000000;fill-opacity:1;fill-rule:evenodd;stroke:none;stroke-width:1px;stroke-linecap:butt;stroke-linejoin:miter;stroke-opacity:1;font-family:Bookman Old Style;-inkscape-font-specification:Bookman Old Style Light"
       xml:space="preserve"><tspan
         y="10030.976"
         x="22774.451"
         id="tspan3511"
         sodipodi:role="line">RAM</tspan></text>
    <text
       sodipodi:linespacing="125%"
       id="text3515"
       y="5450.8296"
       x="17522.053"
       style="font-size:600.00006104px;font-style:normal;font-variant:normal;font-weight:300;font-stretch:normal;text-align:center;line-height:125%;writing-mode:lr-tb;text-anchor:middle;fill:#000000;fill-opacity:1;fill-rule:evenodd;stroke:none;stroke-width:1px;stroke-linecap:butt;stroke-linejoin:miter;stroke-opacity:1;font-family:Bookman Old Style;-inkscape-font-specification:Bookman Old Style Light"
       xml:space="preserve"><tspan
         y="5450.8296"
         x="17522.053"
         id="tspan3537"
         sodipodi:role="line">IMMU</tspan></text>
    <text
       sodipodi:linespacing="125%"
       id="text3519"
       y="9950.8301"
       x="17519.709"
       style="font-size:600.00006104px;font-style:normal;font-variant:normal;font-weight:300;font-stretch:normal;text-align:center;line-height:125%;writing-mode:lr-tb;text-anchor:middle;fill:#000000;fill-opacity:1;fill-rule:evenodd;stroke:none;stroke-width:1px;stroke-linecap:butt;stroke-linejoin:miter;stroke-opacity:1;font-family:Bookman Old Style;-inkscape-font-specification:Bookman Old Style Light"
       xml:space="preserve"><tspan
         y="9950.8301"
         x="17519.709"
         id="tspan3535"
         sodipodi:role="line">DMMU</tspan></text>
    <text
       sodipodi:linespacing="125%"
       id="text3523"
       y="3608.6787"
       x="13775.935"
       style="font-size:675.00006104px;font-style:normal;font-variant:normal;font-weight:300;font-stretch:normal;text-align:center;line-height:125%;writing-mode:lr-tb;text-anchor:middle;fill:#000000;fill-opacity:1;fill-rule:evenodd;stroke:none;stroke-width:1px;stroke-linecap:butt;stroke-linejoin:miter;stroke-opacity:1;font-family:Bookman Old Style;-inkscape-font-specification:Bookman Old Style Light"
       xml:space="preserve"><tspan
         y="3608.6787"
         x="13775.935"
         id="tspan3533"
         sodipodi:role="line">TICK</tspan></text>
    <text
       sodipodi:linespacing="125%"
       id="text3527"
       y="3604.8879"
       x="10768.683"
       style="font-size:675.00006104px;font-style:normal;font-variant:normal;font-weight:300;font-stretch:normal;text-align:center;line-height:125%;writing-mode:lr-tb;text-anchor:middle;fill:#000000;fill-opacity:1;fill-rule:evenodd;stroke:none;stroke-width:1px;stroke-linecap:butt;stroke-linejoin:miter;stroke-opacity:1;font-family:Bookman Old Style;-inkscape-font-specification:Bookman Old Style Light"
       xml:space="preserve"><tspan
         y="3604.8879"
         x="10768.683"
         id="tspan3531"
         sodipodi:role="line">PIC</tspan></text>
  </g>
</svg>
